# Blender 4.1.1
# www.blender.org
mtllib pappers_m.mtl
o pappers_m
v -0.143896 0.000500 0.200167
v -0.143896 0.048022 0.200167
v -0.143896 0.000500 -0.218163
v -0.143896 0.048022 -0.218163
v 0.143896 0.000500 0.200167
v 0.143896 0.048022 0.200167
v 0.143896 0.000500 -0.218163
v 0.143896 0.048022 -0.218163
v -0.143896 0.007289 0.200167
v -0.143896 0.014078 0.200167
v -0.143896 0.020867 0.200167
v -0.143896 0.027656 0.200167
v -0.143896 0.034444 0.200167
v -0.143896 0.041233 0.200167
v -0.143896 0.041233 -0.218163
v -0.143896 0.034444 -0.218163
v -0.143896 0.027656 -0.218163
v -0.143896 0.020867 -0.218163
v -0.143896 0.014078 -0.218163
v -0.143896 0.007289 -0.218163
v 0.143896 0.041233 -0.218163
v 0.143896 0.034444 -0.218163
v 0.143896 0.027656 -0.218163
v 0.143896 0.020867 -0.218163
v 0.143896 0.014078 -0.218163
v 0.143896 0.007289 -0.218163
v 0.143896 0.041233 0.200167
v 0.143896 0.034444 0.200167
v 0.143896 0.027656 0.200167
v 0.143896 0.020867 0.200167
v 0.143896 0.014078 0.200167
v 0.143896 0.007289 0.200167
v -0.139406 0.034444 0.195677
v -0.139406 0.041233 0.195677
v -0.139406 0.041233 -0.213673
v -0.139406 0.034444 -0.213673
v 0.139406 0.041233 -0.213673
v 0.139406 0.034444 -0.213673
v 0.139406 0.041233 0.195677
v 0.139406 0.034444 0.195677
v -0.139406 0.034444 0.203169
v -0.139406 0.041233 0.203169
v 0.139406 0.041233 0.203169
v 0.139406 0.034444 0.203169
v 0.148637 0.041233 -0.213673
v 0.148637 0.034444 -0.213673
v 0.148637 0.041233 0.195677
v 0.148637 0.034444 0.195677
v 0.148637 0.041233 0.203169
v 0.148637 0.034444 0.203169
v -0.139776 0.014078 0.196047
v -0.139776 0.020867 0.196047
v -0.139776 0.020867 -0.214043
v -0.139776 0.014078 -0.214043
v 0.139776 0.020867 -0.214043
v 0.139776 0.014078 -0.214043
v 0.139776 0.020867 0.196047
v 0.139776 0.014078 0.196047
v -0.149575 0.014078 0.196047
v -0.149575 0.020867 0.196047
v -0.149575 0.020867 -0.214043
v -0.149575 0.014078 -0.214043
vn -1.0000 -0.0000 -0.0000
vn -0.0000 -0.0000 -1.0000
vn 1.0000 -0.0000 -0.0000
vn -0.0000 -0.0000 1.0000
vn -0.0000 -1.0000 -0.0000
vn -0.0000 1.0000 -0.0000
vt 0.171566 0.014057
vt 0.171566 0.968628
vt 0.828266 0.968628
vt 0.828266 0.014057
vt 0.709674 0.992847
vt 0.387813 0.992847
vt 0.387813 0.524994
vt 0.709674 0.524994
vt 0.818864 0.023459
vt 0.180967 0.023459
vt 0.818021 0.958382
vt 0.818021 0.024303
vt 0.818864 0.959226
vt 0.180967 0.959226
vt 0.181811 0.958382
vt 0.181811 0.024303
vt 0.181811 0.007206
vt 0.818021 0.007206
vt 0.839086 0.958382
vt 0.839086 0.024303
vt 0.839086 0.007206
vt 0.158606 0.023459
vt 0.158606 0.959226
s 0
usemtl base_paper.01
f 14/1/1 2/1/1 4/2/1 15/2/1
f 15/2/2 4/2/2 8/3/2 21/3/2
f 21/3/3 8/3/3 6/4/3 27/4/3
f 27/4/4 6/4/4 2/1/4 14/1/4
f 3/2/5 7/3/5 5/4/5 1/1/5
f 5/4/4 32/4/4 9/1/4 1/1/4
f 32/4/4 31/4/4 10/1/4 9/1/4
f 10/1/6 31/4/6 58/9/6 51/10/6
f 30/4/4 29/4/4 12/1/4 11/1/4
f 29/4/4 28/4/4 13/1/4 12/1/4
f 28/4/6 22/3/6 38/11/6 40/12/6
f 7/3/3 26/3/3 32/4/3 5/4/3
f 26/3/3 25/3/3 31/4/3 32/4/3
f 18/2/5 24/3/5 55/13/5 53/14/5
f 24/3/3 23/3/3 29/4/3 30/4/3
f 23/3/3 22/3/3 28/4/3 29/4/3
f 14/1/5 15/2/5 35/15/5 34/16/5
f 3/2/2 20/2/2 26/3/2 7/3/2
f 20/2/2 19/2/2 25/3/2 26/3/2
f 31/4/6 25/3/6 56/13/6 58/9/6
f 18/2/2 17/2/2 23/3/2 24/3/2
f 17/2/2 16/2/2 22/3/2 23/3/2
f 27/4/5 14/1/5 34/16/5 39/12/5
f 1/1/1 9/1/1 20/2/1 3/2/1
f 9/1/1 10/1/1 19/2/1 20/2/1
f 11/1/5 18/2/5 53/14/5 52/10/5
f 11/1/1 12/1/1 17/2/1 18/2/1
f 12/1/1 13/1/1 16/2/1 17/2/1
f 22/3/6 16/2/6 36/15/6 38/11/6
f 39/12/6 34/16/6 42/17/6 43/18/6
f 40/12/5 38/11/5 46/19/5 48/20/5
f 36/15/2 35/15/2 37/11/2 38/11/2
f 33/16/1 34/16/1 35/15/1 36/15/1
f 15/2/5 21/3/5 37/11/5 35/15/5
f 13/1/6 28/4/6 40/12/6 33/16/6
f 16/2/6 13/1/6 33/16/6 36/15/6
f 21/3/5 27/4/5 39/12/5 37/11/5
f 44/18/4 43/18/4 42/17/4 41/17/4
f 39/12/6 43/18/6 49/21/6 47/20/6
f 33/16/5 40/12/5 44/18/5 41/17/5
f 34/16/1 33/16/1 41/17/1 42/17/1
f 46/19/3 45/19/3 47/20/3 48/20/3
f 48/20/3 47/20/3 49/21/3 50/21/3
f 43/18/4 44/18/4 50/21/4 49/21/4
f 38/11/2 37/11/2 45/19/2 46/19/2
f 44/18/5 40/12/5 48/20/5 50/21/5
f 37/11/6 39/12/6 47/20/6 45/19/6
f 58/9/4 57/9/4 52/10/4 51/10/4
f 56/13/3 55/13/3 57/9/3 58/9/3
f 54/14/2 53/14/2 55/13/2 56/13/2
f 51/10/4 52/10/4 60/22/4 59/22/4
f 19/2/6 10/1/6 51/10/6 54/14/6
f 24/3/5 30/4/5 57/9/5 55/13/5
f 25/3/6 19/2/6 54/14/6 56/13/6
f 30/4/5 11/1/5 52/10/5 57/9/5
f 59/22/1 60/22/1 61/23/1 62/23/1
f 52/10/6 53/14/6 61/23/6 60/22/6
f 53/14/2 54/14/2 62/23/2 61/23/2
f 54/14/5 51/10/5 59/22/5 62/23/5
usemtl paper_text.02
f 8/5/6 4/6/6 2/7/6 6/8/6
