# Blender 4.1.1
# www.blender.org
mtllib post-it_taches.001.mtl
o post-it_taches.001
v -0.066363 -0.128775 0.018977
v 0.072692 -0.119753 0.037554
v -0.066403 -0.127830 0.030726
v 0.070377 -0.116065 0.048502
v -0.071673 -0.003027 0.009785
v 0.071673 0.003027 0.009785
v -0.071673 -0.003027 0.000000
v 0.071673 0.003027 0.000000
v 0.075310 -0.083087 0.028685
v 0.075573 -0.089312 0.017214
v -0.003196 -0.125487 0.030743
v 0.004729 -0.125773 0.018977
v -0.072694 0.021137 0.011783
v 0.070653 0.027190 0.011783
v 0.070653 0.027190 0.000000
v -0.072694 0.021137 0.000000
vn 0.0563 -0.9789 0.1967
vn -0.2626 0.5256 0.8092
vn -0.0422 0.9991 -0.0000
vn 0.9906 -0.0390 0.1312
vn -0.9991 -0.0422 -0.0000
vn -0.0879 0.2100 0.9737
vn 0.2649 -0.5529 -0.7900
vn 0.9991 0.0422 -0.0000
vn 0.0682 -0.1800 -0.9813
vn -0.0068 0.1650 0.9863
vn 0.0397 -0.9971 0.0656
vn 0.0063 -0.1490 -0.9888
vn 0.0035 -0.0822 0.9966
vn -0.0000 -0.0000 -1.0000
vt 0.460115 0.032235
vt 0.508773 0.030479
vt 0.926009 0.067438
vt 0.911795 0.090082
vt 0.942081 0.292536
vt 0.033457 0.932390
vt 0.913492 0.969551
vt 0.943694 0.254320
vt 0.039722 0.784046
vt 0.072322 0.012048
vt 0.072076 0.017852
vt 0.919756 0.821208
s 1
usemtl post-it_taches.001
f 11/1/1 12/2/1 2/3/1 4/4/1
f 9/5/2 11/1/2 4/4/2
f 13/6/3 14/7/3 15/7/3 16/6/3
f 10/8/4 9/5/4 4/4/4 2/3/4
f 7/9/5 1/10/5 3/11/5 5/9/5
f 6/12/6 11/1/6 9/5/6
f 12/2/7 10/8/7 2/3/7
f 9/5/8 10/8/8 8/12/8 6/12/8
f 12/2/9 8/12/9 10/8/9
f 3/11/10 11/1/10 6/12/10 5/9/10
f 1/10/11 12/2/11 11/1/11 3/11/11
f 1/10/12 7/9/12 8/12/12 12/2/12
f 5/9/13 6/12/13 14/7/13 13/6/13
f 6/12/8 8/12/8 15/7/8 14/7/8
f 8/12/14 7/9/14 16/6/14 15/7/14
f 7/9/5 5/9/5 13/6/5 16/6/5
