# Blender 4.1.1
# www.blender.org
mtllib board-wire-papers.mtl
o board-wire-papers
v -0.159495 -0.298819 0.010106
v 0.002042 -0.304812 0.010106
v -0.155013 -0.177999 0.010106
v 0.006524 -0.183991 0.010106
v -0.076406 -0.203512 0.010106
v -0.114301 -0.238696 0.010106
v -0.076595 -0.279307 0.010106
v -0.038700 -0.244123 0.010106
v 0.148607 0.019771 0.010106
v 0.279602 0.021617 0.010106
v 0.146287 0.184349 0.010106
v 0.277282 0.186195 0.010106
v -0.159495 -0.298819 0.010106
v 0.002042 -0.304812 0.010106
v -0.155013 -0.177999 0.010106
v 0.006524 -0.183991 0.010106
v -0.076406 -0.203512 0.010106
v -0.114301 -0.238696 0.010106
v -0.076595 -0.279307 0.010106
v -0.038700 -0.244123 0.010106
v 0.023128 -0.121635 0.010899
v 0.135705 -0.119121 0.010899
v 0.020429 -0.000761 0.010899
v 0.133007 0.001752 0.010899
v -0.325452 -0.375000 -0.000017
v -0.325452 -0.375000 0.009254
v -0.325452 0.375000 -0.000015
v -0.325452 0.375000 0.009256
v 0.274548 -0.375000 -0.000017
v 0.274548 -0.375000 0.009254
v 0.274548 0.375000 -0.000015
v 0.274548 0.375000 0.009256
v -0.325452 -0.187500 -0.000016
v -0.325452 -0.187500 0.009254
v -0.325452 -0.000000 -0.000016
v -0.325452 0.000000 0.009255
v -0.325452 0.187500 -0.000015
v -0.325452 0.187500 0.009255
v -0.175452 0.375000 -0.000015
v -0.175452 0.375000 0.009256
v -0.025452 0.375000 -0.000015
v -0.025452 0.375000 0.009256
v 0.124548 0.375000 -0.000015
v 0.124548 0.375000 0.009256
v 0.274548 0.187500 -0.000015
v 0.274548 0.187500 0.009255
v 0.274548 -0.000000 -0.000016
v 0.274548 0.000000 0.009255
v 0.274548 -0.187500 -0.000016
v 0.274548 -0.187500 0.009254
v 0.124548 -0.375000 -0.000017
v 0.124548 -0.375000 0.009254
v -0.025452 -0.375000 -0.000017
v -0.025452 -0.375000 0.009254
v -0.175452 -0.375000 -0.000017
v -0.175452 -0.375000 0.009254
v 0.124548 0.187500 -0.000015
v 0.124548 0.187500 0.009255
v 0.124548 -0.000000 -0.000016
v 0.124548 0.000000 0.009255
v 0.124548 -0.187500 -0.000016
v 0.124548 -0.187500 0.009254
v -0.025452 0.187500 -0.000015
v -0.025452 0.187500 0.009255
v -0.025452 -0.000000 -0.000016
v -0.025452 0.000000 0.009255
v -0.025452 -0.187500 -0.000016
v -0.025452 -0.187500 0.009254
v -0.175452 0.187500 -0.000015
v -0.175452 0.187500 0.009255
v -0.175452 -0.000000 -0.000016
v -0.175452 0.000000 0.009255
v -0.175452 -0.187500 -0.000016
v -0.175452 -0.187500 0.009254
v -0.181452 -0.195000 0.004619
v -0.319452 -0.195000 0.004619
v -0.319452 -0.367500 0.004619
v -0.181452 -0.367500 0.004619
v 0.268548 -0.195000 0.004619
v 0.130548 -0.195000 0.004619
v 0.130548 -0.367500 0.004619
v 0.268548 -0.367500 0.004619
v 0.118548 -0.195000 0.004619
v -0.019452 -0.195000 0.004619
v -0.019452 -0.367500 0.004619
v 0.118548 -0.367500 0.004619
v -0.031452 -0.195000 0.004619
v -0.169452 -0.195000 0.004619
v -0.169452 -0.367500 0.004619
v -0.031452 -0.367500 0.004619
v 0.268548 0.367500 0.004620
v 0.130548 0.367500 0.004620
v 0.130548 0.195000 0.004620
v 0.268548 0.195000 0.004620
v 0.268548 0.180000 0.004620
v 0.130548 0.180000 0.004620
v 0.130548 0.007500 0.004619
v 0.268548 0.007500 0.004619
v 0.268548 -0.007500 0.004619
v 0.130548 -0.007500 0.004619
v 0.130548 -0.180000 0.004619
v 0.268548 -0.180000 0.004619
v 0.118548 0.367500 0.004620
v -0.019452 0.367500 0.004620
v -0.019452 0.195000 0.004620
v 0.118548 0.195000 0.004620
v 0.118548 0.180000 0.004620
v -0.019452 0.180000 0.004620
v -0.019452 0.007500 0.004619
v 0.118548 0.007500 0.004619
v 0.118548 -0.007500 0.004619
v -0.019452 -0.007500 0.004619
v -0.019452 -0.180000 0.004619
v 0.118548 -0.180000 0.004619
v -0.031452 0.367500 0.004620
v -0.169452 0.367500 0.004620
v -0.169452 0.195000 0.004620
v -0.031452 0.195000 0.004620
v -0.031452 0.180000 0.004620
v -0.169452 0.180000 0.004620
v -0.169452 0.007500 0.004619
v -0.031452 0.007500 0.004619
v -0.031452 -0.007500 0.004619
v -0.169452 -0.007500 0.004619
v -0.169452 -0.180000 0.004619
v -0.031452 -0.180000 0.004619
v -0.181452 0.367500 0.004620
v -0.319452 0.367500 0.004620
v -0.319452 0.195000 0.004620
v -0.181452 0.195000 0.004620
v -0.181452 0.180000 0.004620
v -0.319452 0.180000 0.004620
v -0.319452 0.007500 0.004619
v -0.181452 0.007500 0.004619
v -0.181452 -0.007500 0.004619
v -0.319452 -0.007500 0.004619
v -0.319452 -0.180000 0.004619
v -0.181452 -0.180000 0.004619
v -0.117637 0.205485 0.000010
v -0.117637 0.178074 -0.001786
v -0.117637 0.199495 0.020189
v -0.117637 0.175544 0.006737
v -0.151128 0.205485 0.000010
v -0.151128 0.178074 -0.001786
v -0.151128 0.199495 0.020189
v -0.151128 0.175544 0.006737
v 0.195228 0.199714 0.020192
v 0.205275 0.199714 0.020192
v 0.192483 0.227351 0.033397
v 0.208020 0.227351 0.033397
v 0.195228 0.205706 0.000009
v 0.205275 0.205706 0.000009
v 0.192483 0.236070 0.004025
v 0.208020 0.236070 0.004025
v 0.195228 0.199714 0.020192
v 0.205275 0.199714 0.020192
v 0.192483 0.227351 0.033397
v 0.208020 0.227351 0.033397
v 0.195228 0.205706 0.000009
v 0.205275 0.205706 0.000009
v 0.192483 0.236070 0.004025
v 0.208020 0.236070 0.004025
v -0.120765 -0.197805 0.006760
v -0.120765 -0.173854 0.020212
v -0.120765 -0.195275 -0.001763
v -0.120765 -0.167864 0.000033
v -0.087274 -0.197805 0.006760
v -0.087274 -0.173854 0.020212
v -0.087274 -0.195275 -0.001763
v -0.087274 -0.167864 0.000033
v -0.139401 0.199497 0.020192
v -0.129354 0.199497 0.020192
v -0.142146 0.227133 0.033397
v -0.126609 0.227133 0.033397
v -0.139401 0.205488 0.000009
v -0.129354 0.205488 0.000009
v -0.142146 0.235852 0.004025
v -0.126609 0.235852 0.004025
v -0.139401 0.199497 0.020192
v -0.129354 0.199497 0.020192
v -0.142146 0.227133 0.033397
v -0.126609 0.227133 0.033397
v -0.139401 0.205488 0.000009
v -0.129354 0.205488 0.000009
v -0.142146 0.235852 0.004025
v -0.126609 0.235852 0.004025
v 0.034150 -0.012677 0.006746
v 0.034150 0.011274 0.020198
v 0.034150 -0.010147 -0.001776
v 0.034150 0.017265 0.000019
v 0.067642 -0.012677 0.006746
v 0.067642 0.011274 0.020198
v 0.067642 -0.010147 -0.001776
v 0.067642 0.017265 0.000019
v 0.045872 0.011276 0.020192
v 0.055920 0.011276 0.020192
v 0.043128 0.038912 0.033397
v 0.058664 0.038912 0.033397
v 0.045872 0.017268 0.000009
v 0.055920 0.017268 0.000009
v 0.043128 0.047632 0.004025
v 0.058664 0.047632 0.004025
v 0.045872 0.011276 0.020192
v 0.055920 0.011276 0.020192
v 0.043128 0.038912 0.033397
v 0.058664 0.038912 0.033397
v 0.045872 0.017268 0.000009
v 0.055920 0.017268 0.000009
v 0.043128 0.047632 0.004025
v 0.058664 0.047632 0.004025
v -0.109050 -0.173852 0.020192
v -0.099002 -0.173852 0.020192
v -0.111794 -0.146216 0.033397
v -0.096257 -0.146216 0.033397
v -0.109050 -0.167860 0.000009
v -0.099002 -0.167860 0.000009
v -0.111794 -0.137496 0.004025
v -0.096257 -0.137496 0.004025
v -0.109050 -0.173852 0.020192
v -0.099002 -0.173852 0.020192
v -0.111794 -0.146216 0.033397
v -0.096257 -0.146216 0.033397
v -0.109050 -0.167860 0.000009
v -0.099002 -0.167860 0.000009
v -0.111794 -0.137496 0.004025
v -0.096257 -0.137496 0.004025
v 0.183534 0.175761 0.006746
v 0.183534 0.199712 0.020198
v 0.183534 0.178292 -0.001777
v 0.183534 0.205703 0.000019
v 0.217025 0.175761 0.006746
v 0.217025 0.199712 0.020198
v 0.217025 0.178292 -0.001777
v 0.217025 0.205703 0.000019
v -0.166974 -0.327663 0.010598
v -0.036886 -0.335157 0.010598
v -0.158928 -0.187988 0.010598
v -0.028840 -0.195483 0.010598
v -0.218128 -0.120920 0.012263
v -0.023118 -0.113606 0.012263
v -0.225981 0.183875 0.012263
v -0.030970 0.191189 0.012263
vn -0.0000 -0.0000 1.0000
vn -0.0000 -0.5257 -0.8507
vn -0.0000 -0.5257 0.8506
vn 0.6114 -0.0000 -0.7914
vn 0.6114 -0.0000 0.7914
vn -0.0000 0.5257 -0.8506
vn -0.0000 0.5257 0.8506
vn -0.6114 -0.0000 -0.7914
vn -0.6114 -0.0000 0.7914
vn -0.0000 -0.5257 -0.8506
vn -0.0000 1.0000 -0.0000
vn 1.0000 -0.0000 -0.0000
vn -0.0000 -1.0000 -0.0000
vn -1.0000 -0.0000 -0.0000
vn -0.0000 -0.9586 -0.2846
vn -0.0000 0.0654 -0.9979
vn -0.0000 -0.4897 0.8719
vn -0.0000 0.9586 0.2846
vn -0.0000 -0.4311 0.9023
vn -0.0000 0.1311 -0.9914
vn -0.0000 0.4311 -0.9023
vn -0.0000 -0.1311 0.9914
vt 0.467907 0.396742
vt 0.778175 0.396742
vt 0.778175 0.729875
vt 0.467907 0.729875
vt 0.468020 0.001641
vt 0.779964 0.001641
vt 0.779964 0.393560
vt 0.468019 0.393560
vt 0.000129 1.000000
vt 0.000129 0.731873
vt 0.288014 0.731873
vt 0.288014 1.000000
vt 0.877811 0.140306
vt 0.984862 0.138543
vt 0.990995 0.144818
vt 0.871899 0.147495
vt 0.015834 0.148982
vt 0.127500 0.153900
vt 0.133281 0.160921
vt 0.008195 0.156282
vt 0.979438 0.007022
vt 0.984991 0.000000
vt 0.030836 0.032034
vt 0.026157 0.026606
vt 0.874300 0.008507
vt 0.868757 0.002123
vt 0.125656 0.017898
vt 0.131988 0.009000
vt 0.522663 0.140214
vt 0.629366 0.142108
vt 0.635200 0.149192
vt 0.516384 0.147230
vt 0.385369 0.154961
vt 0.495691 0.152422
vt 0.502839 0.158982
vt 0.379219 0.162276
vt 0.632299 0.008666
vt 0.637923 0.001955
vt 0.391847 0.021791
vt 0.385996 0.013067
vt 0.526391 0.006894
vt 0.520719 0.000000
vt 0.482593 0.038035
vt 0.487205 0.032913
vt 0.641361 0.142066
vt 0.747591 0.141928
vt 0.753318 0.148399
vt 0.262243 0.154600
vt 0.373925 0.155730
vt 0.256244 0.161787
vt 0.748016 0.009108
vt 0.753468 0.002377
vt 0.263567 0.015086
vt 0.257324 0.007673
vt 0.643252 0.008481
vt 0.379376 0.020361
vt 0.759365 0.141303
vt 0.865990 0.141046
vt 0.139109 0.153778
vt 0.250607 0.155165
vt 0.863465 0.008861
vt 0.138208 0.015925
vt 0.758871 0.008814
vt 0.250889 0.015270
vt 0.516856 0.586444
vt 0.624554 0.587816
vt 0.630006 0.594552
vt 0.510709 0.593536
vt 0.376780 0.605227
vt 0.465899 0.594387
vt 0.469978 0.599621
vt 0.370998 0.613244
vt 0.625700 0.452849
vt 0.631947 0.445645
vt 0.379911 0.470734
vt 0.374138 0.463549
vt 0.516663 0.451721
vt 0.510876 0.445202
vt 0.487535 0.477875
vt 0.494536 0.471282
vt 0.517285 0.437961
vt 0.625961 0.438553
vt 0.379754 0.457369
vt 0.488942 0.463771
vt 0.628203 0.303056
vt 0.633820 0.296440
vt 0.383088 0.321294
vt 0.377192 0.314153
vt 0.520450 0.301486
vt 0.514549 0.294241
vt 0.495614 0.324890
vt 0.502337 0.317576
vt 0.520552 0.287265
vt 0.627904 0.289366
vt 0.382884 0.307587
vt 0.496219 0.310012
vt 0.629586 0.155942
vt 0.385207 0.169091
vt 0.522198 0.153765
vt 0.496362 0.166656
vt 0.636313 0.587270
vt 0.747081 0.588263
vt 0.753246 0.595414
vt 0.258335 0.607049
vt 0.365676 0.606861
vt 0.252698 0.614035
vt 0.747983 0.452480
vt 0.754077 0.445235
vt 0.259369 0.470002
vt 0.253502 0.463320
vt 0.637647 0.452218
vt 0.367839 0.470754
vt 0.638199 0.438315
vt 0.748176 0.438619
vt 0.259199 0.456375
vt 0.368347 0.456932
vt 0.748943 0.302700
vt 0.754590 0.295702
vt 0.260886 0.320244
vt 0.255022 0.313569
vt 0.639118 0.302730
vt 0.371453 0.321167
vt 0.639959 0.289180
vt 0.748694 0.289183
vt 0.260780 0.306551
vt 0.371814 0.307716
vt 0.747840 0.155248
vt 0.262195 0.168510
vt 0.640445 0.155362
vt 0.372866 0.169629
vt 0.759546 0.588101
vt 0.870766 0.589467
vt 0.877024 0.596676
vt 0.136156 0.603659
vt 0.247204 0.607324
vt 0.130449 0.610532
vt 0.870619 0.452603
vt 0.876685 0.445331
vt 0.138553 0.469183
vt 0.132790 0.462544
vt 0.759842 0.451865
vt 0.247246 0.470490
vt 0.760294 0.437901
vt 0.870642 0.438674
vt 0.138345 0.455638
vt 0.247666 0.456657
vt 0.869435 0.302213
vt 0.874962 0.295227
vt 0.138642 0.320077
vt 0.132684 0.313425
vt 0.759904 0.301998
vt 0.249313 0.320607
vt 0.760079 0.288747
vt 0.868941 0.288720
vt 0.138406 0.306346
vt 0.249656 0.307142
vt 0.866524 0.154374
vt 0.139283 0.167659
vt 0.759177 0.154853
vt 0.249919 0.169136
vt 0.883241 0.589529
vt 0.993790 0.589333
vt 1.000000 0.596625
vt 0.037463 0.590496
vt 0.125042 0.602631
vt 0.033228 0.595592
vt 0.992135 0.451709
vt 0.998333 0.444348
vt 0.020375 0.472350
vt 0.013882 0.466311
vt 0.882694 0.452349
vt 0.126583 0.469807
vt 0.882730 0.438160
vt 0.991871 0.437120
vt 0.019362 0.459088
vt 0.127435 0.456240
vt 0.988247 0.300933
vt 0.994058 0.293733
vt 0.013838 0.322144
vt 0.007470 0.315501
vt 0.880534 0.301910
vt 0.126444 0.320959
vt 0.880324 0.288433
vt 0.987899 0.286717
vt 0.013601 0.307981
vt 0.127160 0.306760
vt 0.985042 0.152117
vt 0.014689 0.164092
vt 0.877995 0.154351
vt 0.127106 0.167747
vt 0.371480 0.619899
vt 0.475210 0.605049
vt 0.501398 0.472114
vt 0.510076 0.317803
vt 0.510709 0.158427
vt 0.492797 0.027676
vt 0.387010 0.004923
vt 0.257399 0.000000
vt 0.131358 0.001905
vt 0.020520 0.020999
vt 0.000000 0.155650
vt 0.000000 0.315678
vt 0.007053 0.466979
vt 0.027780 0.600826
vt 0.129702 0.618302
vt 0.252662 0.621291
vt 0.016064 0.621291
vt 0.042273 0.621291
vt 0.042273 0.628248
vt 0.016064 0.628248
vt 0.016064 0.687714
vt 0.016064 0.666217
vt 0.042273 0.666217
vt 0.042273 0.687714
vt 0.016064 0.649745
vt 0.000000 0.646099
vt 0.009279 0.626708
vt 0.042273 0.649745
vt 0.049057 0.626708
vt 0.058336 0.646099
vt 0.141298 0.621291
vt 0.143446 0.645260
vt 0.131288 0.645260
vt 0.133436 0.621291
vt 0.202091 0.621291
vt 0.204239 0.645259
vt 0.192080 0.645259
vt 0.194228 0.621291
vt 0.060484 0.621291
vt 0.068347 0.621291
vt 0.070495 0.645260
vt 0.058336 0.645260
vt 0.169911 0.621291
vt 0.177774 0.621291
vt 0.179922 0.645259
vt 0.167763 0.645259
vt 0.669654 0.641603
vt 0.643445 0.641603
vt 0.643445 0.625130
vt 0.669654 0.625130
vt 0.643445 0.663100
vt 0.669654 0.663100
vt 0.643445 0.596676
vt 0.669654 0.596676
vt 0.669654 0.603633
vt 0.643445 0.603633
vt 0.676439 0.602094
vt 0.685718 0.621485
vt 0.627381 0.621485
vt 0.636660 0.602094
vt 0.104823 0.621291
vt 0.106971 0.645260
vt 0.094812 0.645260
vt 0.096960 0.621291
vt 0.230704 0.645259
vt 0.228556 0.621291
vt 0.240715 0.621291
vt 0.238567 0.645259
vt 0.109119 0.621291
vt 0.116981 0.621291
vt 0.119129 0.645260
vt 0.157753 0.621291
vt 0.165615 0.621291
vt 0.167763 0.645259
vt 0.155605 0.645259
vt 0.526772 0.603633
vt 0.526772 0.625130
vt 0.510709 0.621485
vt 0.519988 0.602094
vt 0.526772 0.663100
vt 0.526772 0.641603
vt 0.552981 0.641603
vt 0.552981 0.663100
vt 0.559766 0.602094
vt 0.569045 0.621485
vt 0.552981 0.625130
vt 0.552981 0.603633
vt 0.526772 0.596676
vt 0.552981 0.596676
vt 0.129140 0.621291
vt 0.131288 0.645260
vt 0.119129 0.645260
vt 0.121277 0.621291
vt 0.250725 0.621291
vt 0.252873 0.645259
vt 0.240715 0.645259
vt 0.242862 0.621291
vt 0.145594 0.621291
vt 0.153457 0.621291
vt 0.155605 0.645260
vt 0.143446 0.645260
vt 0.218545 0.621291
vt 0.226408 0.621291
vt 0.228556 0.645259
vt 0.216397 0.645259
vt 0.092664 0.621291
vt 0.082653 0.645260
vt 0.084801 0.621291
vt 0.214249 0.621291
vt 0.216397 0.645259
vt 0.204239 0.645259
vt 0.206387 0.621291
vt 0.072643 0.621291
vt 0.080505 0.621291
vt 0.070495 0.645260
vt 0.182070 0.621291
vt 0.189932 0.621291
vt 0.192080 0.645259
vt 0.179922 0.645259
vt 0.585109 0.603633
vt 0.585109 0.625130
vt 0.569045 0.621485
vt 0.578324 0.602094
vt 0.585109 0.663100
vt 0.585109 0.641603
vt 0.611318 0.641603
vt 0.611318 0.663100
vt 0.618102 0.602094
vt 0.611318 0.625130
vt 0.611318 0.603633
vt 0.585109 0.596676
vt 0.611318 0.596676
vt 0.000479 0.000220
vt 0.465116 0.005670
vt 0.465116 0.731664
vt 0.000479 0.726214
s 1
usemtl bois
f 75/13/2 76/14/2 33/15/2 73/16/2
f 76/17/3 75/18/3 74/19/3 34/20/3
f 76/14/4 77/21/4 25/22/4 33/15/4
f 77/23/5 76/17/5 34/20/5 26/24/5
f 77/21/6 78/25/6 55/26/6 25/22/6
f 78/27/7 77/23/7 26/24/7 56/28/7
f 78/25/8 75/13/8 73/16/8 55/26/8
f 75/18/9 78/27/9 56/28/9 74/19/9
f 79/29/2 80/30/2 61/31/2 49/32/2
f 80/33/3 79/34/3 50/35/3 62/36/3
f 80/30/4 81/37/4 51/38/4 61/31/4
f 81/39/5 80/33/5 62/36/5 52/40/5
f 81/37/6 82/41/6 29/42/6 51/38/6
f 82/43/7 81/39/7 52/40/7 30/44/7
f 82/41/8 79/29/8 49/32/8 29/42/8
f 79/34/9 82/43/9 30/44/9 50/35/9
f 83/45/2 84/46/2 67/47/2 61/31/2
f 84/48/3 83/49/3 62/36/3 68/50/3
f 84/46/4 85/51/4 53/52/4 67/47/4
f 85/53/5 84/48/5 68/50/5 54/54/5
f 85/51/6 86/55/6 51/38/6 53/52/6
f 86/56/7 85/53/7 54/54/7 52/40/7
f 86/55/8 83/45/8 61/31/8 51/38/8
f 83/49/9 86/56/9 52/40/9 62/36/9
f 87/57/2 88/58/2 73/16/2 67/47/2
f 88/59/3 87/60/3 68/50/3 74/19/3
f 88/58/4 89/61/4 55/26/4 73/16/4
f 89/62/5 88/59/5 74/19/5 56/28/5
f 89/61/6 90/63/6 53/52/6 55/26/6
f 90/64/7 89/62/7 56/28/7 54/54/7
f 90/63/8 87/57/8 67/47/8 53/52/8
f 87/60/9 90/64/9 54/54/9 68/50/9
f 91/65/10 92/66/10 43/67/10 31/68/10
f 92/69/3 91/70/3 32/71/3 44/72/3
f 92/66/4 93/73/4 57/74/4 43/67/4
f 93/75/5 92/69/5 44/72/5 58/76/5
f 93/73/6 94/77/6 45/78/6 57/74/6
f 94/79/7 93/75/7 58/76/7 46/80/7
f 94/77/8 91/65/8 31/68/8 45/78/8
f 91/70/9 94/79/9 46/80/9 32/71/9
f 95/81/10 96/82/10 57/74/10 45/78/10
f 96/83/3 95/84/3 46/80/3 58/76/3
f 96/82/4 97/85/4 59/86/4 57/74/4
f 97/87/5 96/83/5 58/76/5 60/88/5
f 97/85/6 98/89/6 47/90/6 59/86/6
f 98/91/7 97/87/7 60/88/7 48/92/7
f 98/89/8 95/81/8 45/78/8 47/90/8
f 95/84/9 98/91/9 48/92/9 46/80/9
f 99/93/10 100/94/10 59/86/10 47/90/10
f 100/95/3 99/96/3 48/92/3 60/88/3
f 100/94/4 101/97/4 61/31/4 59/86/4
f 101/98/5 100/95/5 60/88/5 62/36/5
f 101/97/6 102/99/6 49/32/6 61/31/6
f 102/100/7 101/98/7 62/36/7 50/35/7
f 102/99/8 99/93/8 47/90/8 49/32/8
f 99/96/9 102/100/9 50/35/9 48/92/9
f 103/101/10 104/102/10 41/103/10 43/67/10
f 104/104/3 103/105/3 44/72/3 42/106/3
f 104/102/4 105/107/4 63/108/4 41/103/4
f 105/109/5 104/104/5 42/106/5 64/110/5
f 105/107/6 106/111/6 57/74/6 63/108/6
f 106/112/7 105/109/7 64/110/7 58/76/7
f 106/111/8 103/101/8 43/67/8 57/74/8
f 103/105/9 106/112/9 58/76/9 44/72/9
f 107/113/10 108/114/10 63/108/10 57/74/10
f 108/115/3 107/116/3 58/76/3 64/110/3
f 108/114/4 109/117/4 65/118/4 63/108/4
f 109/119/5 108/115/5 64/110/5 66/120/5
f 109/117/6 110/121/6 59/86/6 65/118/6
f 110/122/7 109/119/7 66/120/7 60/88/7
f 110/121/8 107/113/8 57/74/8 59/86/8
f 107/116/9 110/122/9 60/88/9 58/76/9
f 111/123/10 112/124/10 65/118/10 59/86/10
f 112/125/3 111/126/3 60/88/3 66/120/3
f 112/124/4 113/127/4 67/47/4 65/118/4
f 113/128/5 112/125/5 66/120/5 68/50/5
f 113/127/6 114/129/6 61/31/6 67/47/6
f 114/130/7 113/128/7 68/50/7 62/36/7
f 114/129/8 111/123/8 59/86/8 61/31/8
f 111/126/9 114/130/9 62/36/9 60/88/9
f 115/131/10 116/132/10 39/133/10 41/103/10
f 116/134/3 115/135/3 42/106/3 40/136/3
f 116/132/4 117/137/4 69/138/4 39/133/4
f 117/139/5 116/134/5 40/136/5 70/140/5
f 117/137/6 118/141/6 63/108/6 69/138/6
f 118/141/8 115/131/8 41/103/8 63/108/8
f 115/135/9 118/142/9 64/110/9 42/106/9
f 119/143/10 120/144/10 69/138/10 63/108/10
f 120/145/3 119/146/3 64/110/3 70/140/3
f 120/144/4 121/147/4 71/148/4 69/138/4
f 121/149/5 120/145/5 70/140/5 72/150/5
f 121/147/6 122/151/6 65/118/6 71/148/6
f 122/152/7 121/149/7 72/150/7 66/120/7
f 122/151/8 119/143/8 63/108/8 65/118/8
f 119/146/9 122/152/9 66/120/9 64/110/9
f 123/153/10 124/154/10 71/148/10 65/118/10
f 124/155/3 123/156/3 66/120/3 72/150/3
f 124/154/4 125/157/4 73/16/4 71/148/4
f 125/158/5 124/155/5 72/150/5 74/19/5
f 125/157/6 126/159/6 67/47/6 73/16/6
f 126/160/7 125/158/7 74/19/7 68/50/7
f 126/159/8 123/153/8 65/118/8 67/47/8
f 123/156/9 126/160/9 68/50/9 66/120/9
f 127/161/10 128/162/10 27/163/10 39/133/10
f 128/164/3 127/165/3 40/136/3 28/166/3
f 128/162/4 129/167/4 37/168/4 27/163/4
f 129/169/5 128/164/5 28/166/5 38/170/5
f 129/167/6 130/171/6 69/138/6 37/168/6
f 130/172/7 129/169/7 38/170/7 70/140/7
f 130/171/8 127/161/8 39/133/8 69/138/8
f 127/165/9 130/172/9 70/140/9 40/136/9
f 131/173/10 132/174/10 37/168/10 69/138/10
f 132/175/3 131/176/3 70/140/3 38/170/3
f 132/174/4 133/177/4 35/178/4 37/168/4
f 133/179/5 132/175/5 38/170/5 36/180/5
f 133/177/6 134/181/6 71/148/6 35/178/6
f 134/182/7 133/179/7 36/180/7 72/150/7
f 134/181/8 131/173/8 69/138/8 71/148/8
f 131/176/9 134/182/9 72/150/9 70/140/9
f 135/183/10 136/184/10 35/178/10 71/148/10
f 136/185/3 135/186/3 72/150/3 36/180/3
f 136/184/4 137/187/4 33/15/4 35/178/4
f 137/188/5 136/185/5 36/180/5 34/20/5
f 137/187/6 138/189/6 73/16/6 33/15/6
f 138/190/7 137/188/7 34/20/7 74/19/7
f 138/189/8 135/183/8 71/148/8 73/16/8
f 135/186/9 138/190/9 74/19/9 72/150/9
f 43/191/11 44/72/11 32/71/11 31/192/11
f 31/192/12 32/71/12 46/80/12 45/193/12
f 45/193/12 46/80/12 48/92/12 47/194/12
f 47/194/12 48/92/12 50/35/12 49/195/12
f 49/195/12 50/35/12 30/44/12 29/196/12
f 29/196/13 30/44/13 52/40/13 51/197/13
f 51/197/13 52/40/13 54/54/13 53/198/13
f 53/198/13 54/54/13 56/28/13 55/199/13
f 55/199/13 56/28/13 26/24/13 25/200/13
f 25/200/14 26/24/14 34/20/14 33/201/14
f 33/201/14 34/20/14 36/180/14 35/202/14
f 35/202/14 36/180/14 38/170/14 37/203/14
f 37/203/14 38/170/14 28/166/14 27/204/14
f 27/204/11 28/166/11 40/136/11 39/205/11
f 39/205/11 40/136/11 42/106/11 41/206/11
f 41/206/11 42/106/11 44/72/11 43/191/11
f 148/221/19 150/222/19 149/223/19 147/224/19
f 151/225/20 153/226/20 154/227/20 152/228/20
f 172/251/19 174/252/19 173/253/19 171/254/19
f 175/255/20 177/256/20 178/257/20 176/258/20
f 196/280/19 198/281/19 197/282/19 195/283/19
f 199/284/20 201/285/20 202/286/20 200/287/20
f 212/296/19 214/253/19 213/297/19 211/298/19
f 215/299/20 217/300/20 218/301/20 216/302/20
usemtl metal
f 144/207/15 140/208/15 142/209/15 146/210/15
f 144/211/16 143/212/16 139/213/16 140/214/16
f 146/210/14 145/215/14 143/216/14 144/217/14
f 142/209/17 141/218/17 145/215/17 146/210/17
f 139/213/18 143/212/18 145/215/18 141/218/18
f 140/219/12 139/220/12 141/218/12 142/209/12
f 156/229/21 155/230/21 157/231/21 158/232/21
f 159/233/22 160/234/22 162/235/22 161/236/22
f 170/237/18 166/238/18 164/239/18 168/240/18
f 165/241/16 166/238/16 170/237/16 169/242/16
f 165/243/15 169/244/15 167/245/15 163/246/15
f 167/245/17 168/240/17 164/239/17 163/246/17
f 169/247/12 170/248/12 168/240/12 167/245/12
f 163/246/14 164/239/14 166/249/14 165/250/14
f 180/259/21 179/260/21 181/261/21 182/252/21
f 183/262/22 184/263/22 186/264/22 185/265/22
f 187/266/14 188/267/14 190/268/14 189/269/14
f 189/270/16 190/271/16 194/272/16 193/273/16
f 193/274/12 194/275/12 192/276/12 191/277/12
f 191/277/17 192/276/17 188/267/17 187/266/17
f 189/278/15 193/279/15 191/277/15 187/266/15
f 194/272/18 190/271/18 188/267/18 192/276/18
f 204/288/21 203/289/21 205/290/21 206/291/21
f 207/292/22 208/293/22 210/294/22 209/295/22
f 220/303/21 219/304/21 221/297/21 222/305/21
f 223/306/22 224/307/22 226/308/22 225/309/22
f 227/310/14 228/311/14 230/312/14 229/313/14
f 229/314/16 230/315/16 234/316/16 233/317/16
f 233/318/12 234/249/12 232/319/12 231/320/12
f 231/320/17 232/319/17 228/311/17 227/310/17
f 229/321/15 233/322/15 231/320/15 227/310/15
f 234/316/18 230/315/18 228/311/18 232/319/18
usemtl post-it_01
f 9/5/1 10/6/1 12/7/1 11/8/1
usemtl post-it_02
f 21/9/1 22/10/1 24/11/1 23/12/1
usemtl post-it_03
f 239/323/1 240/324/1 242/325/1 241/326/1
usemtl post-it_04
f 235/1/1 236/2/1 238/3/1 237/4/1
