# Blender 4.1.1
# www.blender.org
mtllib books.mtl
o books
v -0.115749 0.022000 0.165000
v 0.115749 0.022000 0.165000
v -0.115749 0.022000 -0.165000
v 0.115749 0.022000 -0.165000
v -0.115749 0.044000 0.165000
v 0.115749 0.044000 0.165000
v -0.115749 0.044000 -0.165000
v 0.115749 0.044000 -0.165000
v -0.131405 0.044242 0.188777
v 0.099675 0.044242 0.174872
v -0.151226 0.044241 -0.140627
v 0.079854 0.044241 -0.154532
v -0.131405 0.066242 0.188777
v 0.099675 0.066242 0.174872
v -0.151226 0.066241 -0.140627
v 0.079854 0.066241 -0.154532
v -0.142149 0.000000 0.142887
v 0.085970 0.000000 0.182296
v -0.085970 -0.000000 -0.182296
v 0.142149 -0.000000 -0.142887
v -0.142149 0.022000 0.142887
v 0.085970 0.022000 0.182296
v -0.085970 0.022000 -0.182296
v 0.142149 0.022000 -0.142887
vn -0.0000 -1.0000 -0.0000
vn -0.0000 1.0000 -0.0000
vn 1.0000 -0.0000 -0.0000
vn -1.0000 -0.0000 -0.0000
vn -0.0000 -0.0000 -1.0000
vn -0.0000 -0.0000 1.0000
vn 0.9982 -0.0000 -0.0601
vn -0.9982 -0.0000 0.0601
vn -0.0601 -0.0000 -0.9982
vn 0.0601 -0.0000 0.9982
vn 0.9854 -0.0000 0.1702
vn -0.9854 -0.0000 -0.1702
vn 0.1702 -0.0000 -0.9854
vn -0.1702 -0.0000 0.9854
vt 0.002031 0.761248
vt 0.339476 0.761248
vt 0.339476 0.997969
vt 0.002031 0.997969
vt 0.002031 0.738752
vt 0.002031 0.502031
vt 0.339476 0.502031
vt 0.339476 0.738752
vt 0.907625 0.576197
vt 0.907625 0.238753
vt 0.930121 0.238753
vt 0.930121 0.576197
vt 0.907625 0.002031
vt 0.930121 0.002032
vt 0.907625 0.812917
vt 0.930121 0.812917
vt 0.339476 0.238752
vt 0.002031 0.238752
vt 0.002032 0.002031
vt 0.339477 0.002032
vt 0.956681 0.238752
vt 0.956681 0.576196
vt 0.934184 0.576196
vt 0.934184 0.238752
vt 0.339477 0.261249
vt 0.002031 0.261248
vt 0.956681 0.812917
vt 0.934184 0.812917
vt 0.956681 0.002031
vt 0.934184 0.002031
vt 0.683530 0.033358
vt 0.683531 0.962093
vt 0.032016 0.962094
vt 0.032017 0.033358
vt 0.343539 0.261248
vt 0.680984 0.261248
vt 0.680984 0.497968
vt 0.343540 0.497969
vt 0.343539 0.238752
vt 0.343540 0.002031
vt 0.680984 0.002032
vt 0.680984 0.238752
vt 0.881066 0.576200
vt 0.881065 0.238754
vt 0.903562 0.238754
vt 0.903562 0.576200
vt 0.881065 0.002031
vt 0.903562 0.002031
vt 0.881066 0.812919
vt 0.903562 0.812919
s 1
usemtl books_cover
f 14/31/2 16/32/2 15/33/2 13/34/2
usemtl books_01
f 9/17/1 11/18/1 12/19/1 10/20/1
f 11/18/8 9/17/8 13/25/8 15/26/8
usemtl books_02
f 1/1/1 3/2/1 4/3/1 2/4/1
f 5/5/2 6/6/2 8/7/2 7/8/2
f 3/2/4 1/1/4 5/5/4 7/8/4
usemtl books_03
f 17/35/1 19/36/1 20/37/1 18/38/1
f 21/39/2 22/40/2 24/41/2 23/42/2
f 19/36/12 17/35/12 21/39/12 23/42/12
usemtl books_paper
f 2/9/3 4/10/3 8/11/3 6/12/3
f 4/10/5 3/13/5 7/14/5 8/11/5
f 1/15/6 2/9/6 6/12/6 5/16/6
f 10/21/7 12/22/7 16/23/7 14/24/7
f 12/22/9 11/27/9 15/28/9 16/23/9
f 9/29/10 10/21/10 14/24/10 13/30/10
f 18/43/11 20/44/11 24/45/11 22/46/11
f 20/44/13 19/47/13 23/48/13 24/45/13
f 17/49/14 18/43/14 22/46/14 21/50/14
