# Blender 4.1.1
# www.blender.org
mtllib Cellotape.mtl
o Cellotape
v -0.089438 0.000000 0.032959
v 0.065110 0.000000 0.032959
v -0.089438 0.094447 0.032959
v 0.065110 0.055054 0.032959
v -0.089438 0.094447 -0.032959
v 0.065110 0.055054 -0.032959
v -0.089438 -0.000000 -0.032959
v 0.065110 -0.000000 -0.032959
v -0.077796 0.094447 0.023408
v 0.055384 0.055054 0.023408
v 0.055384 0.055054 -0.023408
v -0.077796 0.094447 -0.023408
v -0.049939 0.029974 0.023408
v 0.033851 0.029974 0.023408
v 0.033851 0.029974 -0.023408
v -0.049939 0.029974 -0.023408
v 0.080430 -0.000000 -0.032959
v 0.080430 0.000000 0.032959
v 0.080430 0.090455 -0.032959
v 0.080430 0.090455 0.032959
v -0.025363 0.000000 0.032959
v -0.025363 -0.000000 -0.032959
v -0.025363 0.055054 -0.032959
v -0.025363 0.055054 -0.023408
v -0.025363 0.029974 -0.023408
v -0.025363 0.029974 0.023408
v -0.025363 0.055054 0.023408
v -0.025363 0.055054 0.032959
v -0.100191 -0.000000 -0.022895
v -0.100191 0.000000 0.022895
v -0.100191 0.094447 0.022895
v -0.100191 0.094447 -0.022895
v 0.095918 -0.000000 -0.032959
v 0.095918 0.000000 0.032959
v 0.095918 0.090455 -0.032959
v 0.095918 0.090455 0.032959
v 0.095918 0.079835 -0.026858
v 0.095918 0.079835 0.026858
v 0.095918 0.090455 -0.026858
v 0.095918 0.090455 0.026858
v 0.080430 0.090455 0.026858
v 0.080430 0.090455 -0.026858
v 0.075834 0.079835 -0.026858
v 0.075834 0.079835 0.026858
v 0.091266 0.085016 -0.026858
v 0.091266 0.085016 0.026858
v 0.095985 0.085016 0.026858
v 0.095985 0.085016 -0.026858
v 0.023071 0.090713 -0.020175
v -0.009056 0.117055 -0.020175
v -0.050400 0.112963 -0.020175
v -0.076742 0.080836 -0.020175
v -0.072651 0.039492 -0.020175
v -0.040523 0.013151 -0.020175
v 0.000821 0.017242 -0.020175
v 0.027162 0.049369 -0.020175
v 0.023071 0.090713 0.020175
v -0.009056 0.117055 0.020175
v -0.050400 0.112963 0.020175
v -0.076742 0.080836 0.020175
v -0.072651 0.039492 0.020175
v -0.040523 0.013151 0.020175
v 0.000821 0.017242 0.020175
v 0.027162 0.049369 0.020175
v 0.009680 0.083547 -0.020175
v -0.013458 0.102518 -0.020175
v -0.043234 0.099572 -0.020175
v -0.062206 0.076434 -0.020175
v -0.059259 0.046658 -0.020175
v -0.036121 0.027687 -0.020175
v -0.006345 0.030633 -0.020175
v 0.012626 0.053771 -0.020175
v 0.009680 0.083547 0.020175
v -0.013458 0.102518 0.020175
v -0.043234 0.099572 0.020175
v -0.062206 0.076434 0.020175
v -0.059259 0.046658 0.020175
v -0.036121 0.027687 0.020175
v -0.006345 0.030633 0.020175
v 0.012626 0.053771 0.020175
v -0.002401 0.077082 -0.020175
v -0.017430 0.089404 -0.020175
v -0.036769 0.087491 -0.020175
v -0.049091 0.072462 -0.020175
v -0.047178 0.053123 -0.020175
v -0.032149 0.040801 -0.020175
v -0.012810 0.042714 -0.020175
v -0.000488 0.057743 -0.020175
v -0.002401 0.077082 0.020175
v -0.017430 0.089404 0.020175
v -0.036769 0.087491 0.020175
v -0.049091 0.072462 0.020175
v -0.047178 0.053123 0.020175
v -0.032149 0.040801 0.020175
v -0.012810 0.042714 0.020175
v -0.000488 0.057743 0.020175
v 0.025083 0.082902 0.020175
v 0.025083 0.082902 -0.020175
v 0.101264 0.081799 0.020175
v 0.101264 0.081799 -0.020175
v 0.100115 0.088558 -0.020175
v 0.100115 0.088558 0.020175
v 0.053644 0.080754 0.020175
v 0.053644 0.080754 -0.020175
v 0.049711 0.087039 -0.020175
v 0.049711 0.087039 0.020175
vn -0.0000 -0.0000 1.0000
vn -0.0000 1.0000 -0.0000
vn -0.0000 -0.0000 -1.0000
vn -0.0000 -1.0000 -0.0000
vn -1.0000 -0.0000 -0.0000
vn 0.2607 0.9522 0.1589
vn 0.2607 0.9522 -0.1589
vn -0.7587 0.6514 -0.0000
vn 0.9180 0.3966 -0.0000
vn 0.5301 0.7840 -0.3231
vn 0.5301 0.7840 0.3231
vn -0.6833 -0.0000 0.7301
vn -0.6833 -0.0000 -0.7301
vn 1.0000 -0.0000 -0.0000
vn 1.0000 -0.0095 -0.0000
vn -0.9177 0.3972 -0.0000
vn -0.3183 0.9480 -0.0000
vn 0.9999 -0.0131 -0.0000
vn 0.6340 0.7733 -0.0000
vn -0.0985 0.9951 -0.0000
vn -0.7733 0.6340 -0.0000
vn -0.9951 -0.0985 -0.0000
vn -0.6340 -0.7733 -0.0000
vn 0.0985 -0.9951 -0.0000
vn 0.7733 -0.6340 -0.0000
vn 0.9859 0.1676 -0.0000
vn 0.9951 0.0985 -0.0000
vn 0.9981 0.0619 -0.0000
vn -0.0145 -0.9999 -0.0000
vn 0.0220 -0.9998 -0.0000
vn 0.0280 0.9996 -0.0000
vn -0.0301 0.9995 -0.0000
vn -0.0750 -0.9972 -0.0000
vn 0.1366 0.9906 -0.0000
vt 0.081292 0.277897
vt 0.081282 0.278441
vt 0.080953 0.278496
vt 0.080913 0.277946
vt 0.081145 0.277528
vt 0.080837 0.277560
vt 0.081152 0.278017
vt 0.080878 0.278055
vt 0.081426 0.277980
vt 0.081611 0.278385
vt 0.081671 0.277847
vt 0.081452 0.277496
vt 0.111915 0.353613
vt 0.111546 0.354442
vt 0.111414 0.354425
vt 0.111808 0.353602
vt 0.080865 0.277890
vt 0.080940 0.278313
vt 0.112262 0.353739
vt 0.111980 0.354602
vt 0.111418 0.354527
vt 0.111808 0.353691
vt 0.048497 0.374755
vt 0.048783 0.374601
vt 0.048969 0.374877
vt 0.048651 0.375050
vt 0.049061 0.374666
vt 0.049272 0.374940
vt 0.049162 0.374895
vt 0.049373 0.375180
vt 0.049048 0.375144
vt 0.049241 0.375446
vt 0.048791 0.375285
vt 0.048958 0.375601
vt 0.048524 0.375243
vt 0.048669 0.375566
vt 0.048394 0.375029
vt 0.048531 0.375344
vt 0.048615 0.375138
vt 0.048466 0.374837
vt 0.048582 0.374815
vt 0.048784 0.374705
vt 0.048983 0.374750
vt 0.049059 0.374913
vt 0.048978 0.375095
vt 0.048790 0.375197
vt 0.048597 0.375165
vt 0.048506 0.375009
vt 0.048968 0.374989
vt 0.048742 0.375111
vt 0.049184 0.375031
vt 0.049261 0.375202
vt 0.049166 0.375396
vt 0.048960 0.375509
vt 0.048750 0.375481
vt 0.048654 0.375320
vt 0.133311 0.352214
vt 0.133108 0.352324
vt 0.133182 0.352376
vt 0.133312 0.352306
vt 0.133510 0.352259
vt 0.133441 0.352333
vt 0.133586 0.352422
vt 0.133492 0.352439
vt 0.133505 0.352604
vt 0.133439 0.352558
vt 0.133317 0.352706
vt 0.133316 0.352625
vt 0.133123 0.352674
vt 0.133190 0.352603
vt 0.133033 0.352518
vt 0.133132 0.352501
vt 0.133269 0.352620
vt 0.133494 0.352498
vt 0.133493 0.352595
vt 0.133349 0.352674
vt 0.133711 0.352540
vt 0.133633 0.352621
vt 0.133788 0.352711
vt 0.133685 0.352731
vt 0.133693 0.352905
vt 0.133624 0.352858
vt 0.133487 0.353018
vt 0.133488 0.352933
vt 0.133277 0.352991
vt 0.133351 0.352914
vt 0.133181 0.352829
vt 0.133291 0.352808
vt 0.048615 0.375138
vt 0.048466 0.374837
s 1
usemtl Cellotape_plastic
f 28/1/1 21/2/1 2/3/1 4/4/1
f 25/5/2 26/1/2 14/4/2 15/6/2
f 22/7/3 23/5/3 6/6/3 8/8/3
f 21/2/4 22/7/4 8/8/4 2/3/4
f 29/9/5 30/10/5 31/11/5 32/12/5
f 27/1/6 28/1/6 4/4/2 10/4/2
f 4/4/2 6/6/2 11/6/2 10/4/2
f 6/6/2 23/5/7 24/5/7 11/6/2
f 5/12/2 3/11/2 9/11/2 12/12/2
f 26/1/3 27/1/3 10/4/3 14/4/3
f 10/4/8 11/6/8 15/6/8 14/4/8
f 11/6/1 24/5/1 25/5/1 15/6/1
f 12/12/9 9/11/9 13/11/9 16/12/9
f 2/3/4 8/8/4 17/8/4 18/3/4
f 8/8/3 6/6/3 19/6/3 17/8/3
f 4/4/1 2/3/1 18/3/1 20/4/1
f 7/9/4 22/7/4 21/2/4 1/10/4
f 5/12/3 23/5/3 22/7/3 7/9/3
f 24/5/7 23/5/7 5/12/10 12/12/10
f 25/5/1 24/5/1 12/12/1 16/12/1
f 13/11/2 26/1/2 25/5/2 16/12/2
f 9/11/3 27/1/3 26/1/3 13/11/3
f 3/11/11 28/1/6 27/1/6 9/11/11
f 1/10/1 21/2/1 28/1/1 3/11/1
f 7/9/4 1/10/4 30/10/4 29/9/4
f 1/10/12 3/11/12 31/11/12 30/10/12
f 3/11/2 5/12/2 32/12/2 31/11/2
f 5/12/13 7/9/13 29/9/13 32/12/13
f 18/3/4 17/8/4 33/8/4 34/3/4
f 17/8/3 19/6/3 35/6/3 33/8/3
f 45/13/2 46/14/2 47/15/2 48/16/2
f 20/4/1 18/3/1 34/3/1 36/4/1
f 34/3/14 33/8/14 37/17/15 38/18/15
f 33/8/14 35/6/14 39/6/14 37/17/15
f 36/4/14 34/3/14 38/18/15 40/4/14
f 4/4/16 20/4/16 41/4/16 44/4/16
f 20/4/2 36/4/2 40/4/2 41/4/2
f 35/6/2 19/6/2 42/6/2 39/6/2
f 6/6/16 4/4/16 44/4/16 43/6/16
f 19/6/16 6/6/16 43/6/16 42/6/16
f 41/4/3 40/4/3 38/18/3 44/4/3
f 39/6/1 42/6/1 43/6/1 37/17/1
f 43/19/17 44/20/17 46/14/17 45/13/17
f 44/20/1 38/21/1 47/15/1 46/14/1
f 38/21/15 37/22/15 48/16/18 47/15/18
f 37/22/3 43/19/3 45/13/3 48/16/3
usemtl Cellotape_color
f 49/23/19 50/24/19 58/25/19 57/26/19
f 50/24/20 51/27/20 59/28/20 58/25/20
f 51/27/21 52/29/21 60/30/21 59/28/21
f 52/29/22 53/31/22 61/32/22 60/30/22
f 53/31/23 54/33/23 62/34/23 61/32/23
f 54/33/24 55/35/24 63/36/24 62/34/24
f 55/35/25 56/37/25 64/38/25 63/36/25
f 99/39/26 100/40/26 101/23/26 102/26/26
f 50/24/3 49/23/3 65/41/3 66/42/3
f 51/27/3 50/24/3 66/42/3 67/43/3
f 52/29/3 51/27/3 67/43/3 68/44/3
f 53/31/3 52/29/3 68/44/3 69/45/3
f 54/33/3 53/31/3 69/45/3 70/46/3
f 55/35/3 54/33/3 70/46/3 71/47/3
f 56/37/3 55/35/3 71/47/3 72/48/3
f 49/23/3 98/40/3 65/41/3
f 57/26/1 58/25/1 74/49/1 73/50/1
f 58/25/1 59/28/1 75/51/1 74/49/1
f 59/28/1 60/30/1 76/52/1 75/51/1
f 60/30/1 61/32/1 77/53/1 76/52/1
f 61/32/1 62/34/1 78/54/1 77/53/1
f 62/34/1 63/36/1 79/55/1 78/54/1
f 63/36/1 64/38/1 80/56/1 79/55/1
f 73/50/1 97/39/1 57/26/1
f 66/57/3 65/58/3 81/59/3 82/60/3
f 67/61/3 66/57/3 82/60/3 83/62/3
f 68/63/3 67/61/3 83/62/3 84/64/3
f 69/65/3 68/63/3 84/64/3 85/66/3
f 70/67/3 69/65/3 85/66/3 86/68/3
f 71/69/3 70/67/3 86/68/3 87/70/3
f 72/71/3 71/69/3 87/70/3 88/72/3
f 65/58/3 72/71/3 88/72/3 81/59/3
f 73/73/1 74/74/1 90/75/1 89/76/1
f 74/74/1 75/77/1 91/78/1 90/75/1
f 75/77/1 76/79/1 92/80/1 91/78/1
f 76/79/1 77/81/1 93/82/1 92/80/1
f 77/81/1 78/83/1 94/84/1 93/82/1
f 78/83/1 79/85/1 95/86/1 94/84/1
f 79/85/1 80/87/1 96/88/1 95/86/1
f 80/87/1 73/73/1 89/76/1 96/88/1
f 82/60/23 81/59/23 89/76/23 90/75/23
f 83/62/24 82/60/24 90/75/24 91/78/24
f 84/64/25 83/62/25 91/78/25 92/80/25
f 85/66/27 84/64/27 92/80/27 93/82/27
f 86/68/19 85/66/19 93/82/19 94/84/19
f 87/70/20 86/68/20 94/84/20 95/86/20
f 88/72/21 87/70/21 95/86/21 96/88/21
f 81/59/22 88/72/22 96/88/22 89/76/22
f 64/38/1 97/39/1 73/50/1 80/56/1
f 56/37/28 98/40/28 97/39/28 64/38/28
f 65/41/3 98/40/3 56/37/3 72/48/3
f 103/89/29 104/90/29 100/40/30 99/39/30
f 104/90/3 105/23/3 101/23/3 100/40/3
f 105/23/31 106/26/31 102/26/32 101/23/32
f 106/26/1 103/89/1 99/39/1 102/26/1
f 97/39/33 98/40/33 104/90/29 103/89/29
f 98/40/3 49/23/3 105/23/3 104/90/3
f 49/23/34 57/26/34 106/26/31 105/23/31
f 57/26/1 97/39/1 103/89/1 106/26/1
