# Blender 4.1.1
# www.blender.org
mtllib Cellphone.mtl
o Cellphone
v -0.057557 0.025330 0.101110
v -0.057557 0.025330 -0.101110
v 0.057557 0.025330 -0.101110
v 0.057557 0.025330 0.101110
v -0.047585 0.025330 -0.109040
v 0.047585 0.025330 -0.109040
v 0.047585 0.025330 0.109040
v -0.047584 0.025330 0.109040
v 0.051880 0.025330 0.085057
v -0.051880 0.025330 0.085057
v 0.051880 0.025330 -0.085057
v -0.051880 0.025330 -0.085057
v -0.016530 0.025329 -0.096844
v 0.016530 0.025329 -0.096844
v 0.014283 0.025330 -0.099995
v -0.014283 0.025330 -0.099995
v -0.014283 0.025330 -0.094102
v 0.014283 0.025330 -0.094102
v -0.063169 0.007656 0.104898
v -0.063169 0.022235 0.104898
v -0.050643 0.007656 -0.115122
v -0.050643 0.022235 -0.115122
v 0.050643 0.022235 -0.115122
v 0.050643 0.007656 -0.115122
v 0.063169 0.022235 0.104898
v 0.063169 0.007656 0.104898
v 0.050643 0.007656 0.115122
v 0.050643 0.022235 0.115122
v -0.050643 0.022235 0.115122
v -0.050643 0.007656 0.115122
v 0.059564 0.003497 0.103266
v -0.059564 0.003497 0.103266
v -0.063170 0.007656 -0.104898
v -0.063170 0.022235 -0.104898
v 0.063169 0.007656 -0.104898
v 0.063169 0.022235 -0.104898
v -0.059564 0.003497 -0.103266
v 0.059564 0.003497 -0.103266
v -0.049244 0.003497 -0.111377
v 0.049244 0.003497 -0.111377
v 0.049244 0.003497 0.111377
v -0.049244 0.003497 0.111377
v -0.059564 0.026394 0.103266
v -0.049244 0.026394 -0.111377
v 0.049244 0.026394 -0.111377
v 0.059564 0.026394 0.103266
v 0.049244 0.026394 0.111377
v -0.049244 0.026394 0.111377
v -0.059564 0.026394 -0.103266
v 0.059564 0.026394 -0.103266
v -0.028204 0.003497 -0.076608
v 0.011002 0.003497 -0.076608
v 0.015902 0.003497 -0.072102
v 0.015902 0.003497 -0.050314
v 0.011002 0.003497 -0.045808
v -0.028204 0.003497 -0.045808
v -0.033104 0.003497 -0.050314
v -0.033104 0.003497 -0.072102
v 0.014494 0.005253 -0.051513
v 0.009875 0.005252 -0.047504
v -0.027076 0.005252 -0.047504
v -0.031695 0.005252 -0.051513
v -0.031695 0.005252 -0.070903
v -0.027076 0.005252 -0.074912
v 0.009875 0.005252 -0.074912
v 0.014494 0.005253 -0.070903
v -0.015136 0.005252 -0.052867
v -0.024779 0.005252 -0.052867
v -0.024779 0.005252 -0.069549
v -0.015136 0.005252 -0.069549
v -0.016667 0.007527 -0.053804
v -0.023248 0.007527 -0.053804
v -0.023248 0.007527 -0.068612
v -0.016667 0.007527 -0.068612
v 0.012826 0.023942 0.101407
v 0.012826 0.023942 0.092446
v 0.006208 0.023943 0.086109
v -0.003152 0.023942 0.086109
v -0.009770 0.023942 0.092446
v -0.009770 0.023942 0.101407
v -0.003151 0.023942 0.107744
v 0.006208 0.023943 0.107744
v 0.011637 0.028283 0.100936
v 0.011637 0.028283 0.092918
v 0.005715 0.028284 0.087248
v -0.002659 0.028283 0.087248
v -0.008581 0.028284 0.092918
v -0.008581 0.028284 0.100936
v -0.002659 0.028283 0.106606
v 0.005715 0.028284 0.106606
v 0.001528 0.028283 0.096927
v -0.009770 0.004342 -0.057007
v -0.009770 0.004342 -0.065968
v -0.003152 0.004341 -0.072305
v 0.006208 0.004342 -0.072305
v 0.012826 0.004341 -0.065968
v 0.012826 0.004341 -0.057007
v 0.006208 0.004342 -0.050670
v -0.003152 0.004341 -0.050670
v -0.008581 -0.000000 -0.057479
v -0.008581 -0.000000 -0.065497
v -0.002659 -0.000000 -0.071167
v 0.005715 -0.000000 -0.071167
v 0.011637 -0.000000 -0.065497
v 0.011637 -0.000000 -0.057479
v 0.005715 -0.000000 -0.051809
v -0.002659 -0.000000 -0.051809
v -0.006577 0.001628 -0.058273
v -0.006577 0.001628 -0.064702
v 0.001528 0.001628 -0.061488
v -0.001829 0.001628 -0.069248
v 0.004885 0.001629 -0.069248
v 0.009633 0.001629 -0.064702
v 0.009633 0.001629 -0.058273
v 0.004885 0.001629 -0.053727
v -0.001829 0.001628 -0.053727
vn -1.0000 -0.0000 -0.0000
vn -0.0000 -0.0000 -1.0000
vn 1.0000 -0.0000 -0.0000
vn -0.0000 -0.0000 1.0000
vn -0.0000 1.0000 -0.0000
vn -0.0000 -1.0000 -0.0000
vn -0.6323 -0.0000 -0.7747
vn -0.0000 1.0000 0.0001
vn 0.6323 -0.0000 -0.7747
vn 0.6323 -0.0000 0.7747
vn -0.6323 -0.0000 0.7747
vn -0.0000 1.0000 -0.0001
vn -0.7556 0.6551 -0.0000
vn -0.7556 -0.6551 -0.0000
vn -0.0000 0.6691 -0.7431
vn -0.0000 -0.6691 -0.7431
vn 0.7556 0.6551 -0.0000
vn 0.7556 -0.6551 -0.0000
vn -0.0000 0.6691 0.7431
vn -0.0000 -0.6691 0.7431
vn -0.4697 0.6610 -0.5852
vn -0.4697 -0.6610 -0.5852
vn 0.4697 -0.6610 -0.5852
vn 0.4697 0.6610 -0.5852
vn 0.4697 0.6610 0.5852
vn 0.4697 -0.6610 0.5852
vn -0.4697 -0.6610 0.5852
vn -0.4697 0.6610 0.5852
vn 0.4685 0.8835 -0.0000
vn -0.0000 0.9101 0.4143
vn -0.0000 0.9101 -0.4143
vn 0.2137 0.9387 0.2703
vn -0.2137 0.9388 0.2703
vn -0.2137 0.9388 -0.2703
vn 0.2137 0.9388 -0.2703
vn -0.4685 0.8835 -0.0000
vn -0.4493 -0.7387 -0.5024
vn -0.0000 -0.6948 -0.7192
vn 0.4493 -0.7388 -0.5023
vn 0.7799 -0.6259 -0.0000
vn 0.4493 -0.7388 0.5023
vn -0.0000 -0.6948 0.7192
vn -0.4493 -0.7387 0.5024
vn -0.7801 -0.6257 -0.0000
vn -0.0000 -1.0000 -0.0001
vn -0.0000 -1.0000 -0.0002
vn -0.0000 -1.0000 0.0002
vn -0.0000 -1.0000 0.0001
vn -0.0000 -0.3808 -0.9246
vn 0.8296 -0.5584 -0.0000
vn -0.0000 -0.3808 0.9246
vn -0.8296 -0.5584 -0.0000
vn 0.9645 0.2642 -0.0000
vn 0.6681 0.2587 -0.6977
vn -0.0000 0.2537 -0.9673
vn -0.6680 0.2587 -0.6977
vn -0.9645 0.2641 -0.0000
vn -0.6680 0.2587 0.6977
vn -0.0000 0.2537 0.9673
vn 0.6681 0.2587 0.6977
vn 0.0001 1.0000 -0.0000
vn -0.9645 -0.2641 -0.0000
vn -0.6681 -0.2587 -0.6977
vn -0.0000 -0.2536 -0.9673
vn 0.6680 -0.2587 -0.6977
vn 0.9645 -0.2642 -0.0000
vn 0.6680 -0.2587 0.6977
vn -0.0000 -0.2536 0.9673
vn -0.6681 -0.2587 0.6977
vn 0.0001 -1.0000 -0.0000
vn 0.0001 -1.0000 -0.0001
vn 0.0001 -1.0000 0.0001
vn 0.6305 -0.7762 -0.0000
vn 0.4419 -0.7693 0.4615
vn -0.0000 -0.7624 0.6471
vn -0.4420 -0.7691 0.4617
vn -0.6308 -0.7760 -0.0000
vn -0.4420 -0.7691 -0.4617
vn -0.0000 -0.7624 -0.6471
vn 0.4419 -0.7693 -0.4615
vt 0.134056 0.378882
vt 0.049471 0.180297
vt 0.048895 0.180083
vt 0.049394 0.179506
vt 0.049895 0.179654
vt 0.082733 0.228671
vt 0.100966 0.228305
vt 0.134227 0.279849
vt 0.134056 0.378882
vt 0.134227 0.279849
vt 0.134227 0.279849
vt 0.135495 0.254490
vt 0.081610 0.230916
s 1
usemtl Cellphone_black_01
f 19/1/1 20/1/1 34/1/1 33/1/1
f 21/1/2 22/1/2 23/1/2 24/1/2
f 25/1/3 26/1/3 35/1/3 36/1/3
f 27/1/4 28/1/4 29/1/4 30/1/4
f 71/6/6 72/6/6 73/6/6 74/6/6
f 33/1/7 34/1/7 22/1/7 21/1/7
f 13/7/5 14/7/5 15/7/8 16/7/8
f 36/1/9 35/1/9 24/1/9 23/1/9
f 38/1/6 37/1/6 39/1/6 40/1/6
f 26/1/10 25/1/10 28/1/10 27/1/10
f 4/8/5 1/8/5 8/8/5 7/8/5
f 20/1/11 19/1/11 30/1/11 29/1/11
f 32/1/6 31/1/6 41/1/6 42/1/6
f 1/8/5 4/8/5 9/8/5 10/8/5
f 9/8/5 4/8/5 3/8/5 11/8/5
f 14/7/5 13/7/5 17/7/12 18/7/12
f 1/8/5 10/8/5 12/8/5 2/8/5
f 20/1/13 43/1/13 49/1/13 34/1/13
f 32/1/14 19/1/14 33/1/14 37/1/14
f 44/1/15 45/1/15 23/1/15 22/1/15
f 40/1/16 39/1/16 21/1/16 24/1/16
f 46/1/17 25/1/17 36/1/17 50/1/17
f 26/1/18 31/1/18 38/1/18 35/1/18
f 47/1/19 48/1/19 29/1/19 28/1/19
f 42/1/20 41/1/20 27/1/20 30/1/20
f 49/1/21 44/1/21 22/1/21 34/1/21
f 39/1/22 37/1/22 33/1/22 21/1/22
f 38/1/23 40/1/23 24/1/23 35/1/23
f 45/1/24 50/1/24 36/1/24 23/1/24
f 46/1/25 47/1/25 28/1/25 25/1/25
f 41/1/26 31/1/26 26/1/26 27/1/26
f 32/1/27 42/1/27 30/1/27 19/1/27
f 48/1/28 43/1/28 20/1/28 29/1/28
f 3/8/5 6/8/8 15/8/8 14/8/5
f 6/8/8 5/8/8 16/8/8 15/8/8
f 5/8/8 2/8/5 13/8/5 16/8/8
f 2/8/5 12/8/5 17/8/12 13/8/5
f 12/8/5 11/8/5 18/8/12 17/8/12
f 11/8/5 3/8/5 14/8/5 18/8/12
f 43/1/29 1/1/29 2/1/29 49/1/29
f 5/1/30 6/1/30 45/1/30 44/1/30
f 7/1/31 8/1/31 48/1/31 47/1/31
f 2/1/32 5/1/32 44/1/32 49/1/32
f 6/1/33 3/1/33 50/1/33 45/1/33
f 4/1/34 7/1/34 47/1/34 46/1/34
f 8/1/35 1/1/35 43/1/35 48/1/35
f 46/1/36 50/1/36 3/1/36 4/1/36
f 31/1/6 32/1/6 56/1/6 55/9/6
f 32/1/6 37/1/6 58/1/6 57/9/6
f 37/1/6 38/1/6 52/1/6 51/9/6
f 38/1/6 31/1/6 54/1/6 53/9/6
f 53/9/6 52/1/6 38/1/6
f 31/1/6 55/9/6 54/1/6
f 57/9/6 56/1/6 32/1/6
f 51/9/6 58/1/6 37/1/6
f 54/1/37 55/9/37 60/9/37 59/1/37
f 55/9/38 56/1/38 61/1/38 60/9/38
f 56/1/39 57/9/39 62/9/39 61/1/39
f 57/9/40 58/1/40 63/1/40 62/9/40
f 58/1/41 51/9/41 64/9/41 63/1/41
f 51/9/42 52/1/42 65/1/42 64/9/42
f 52/1/43 53/9/43 66/9/43 65/1/43
f 53/9/44 54/1/44 59/1/44 66/9/44
f 59/10/45 60/10/46 67/10/6
f 60/10/46 61/10/6 68/10/6 67/10/6
f 61/10/6 62/10/6 68/10/6
f 62/10/6 63/11/6 69/11/6 68/10/6
f 63/11/6 64/11/6 69/11/6
f 64/11/6 65/11/47 70/11/6 69/11/6
f 65/11/47 66/11/48 70/11/6
f 66/11/48 59/10/45 67/10/6 70/11/6
f 67/10/49 68/10/49 72/10/49 71/10/49
f 68/10/50 69/11/50 73/11/50 72/10/50
f 69/11/51 70/11/51 74/11/51 73/11/51
f 70/11/52 67/10/52 71/10/52 74/11/52
f 92/12/62 93/12/62 101/12/62 100/12/62
f 93/12/63 94/12/63 102/12/63 101/12/63
f 94/12/64 95/12/64 103/12/64 102/12/64
f 95/12/65 96/12/65 104/12/65 103/12/65
f 96/12/66 97/12/66 105/12/66 104/12/66
f 97/12/67 98/12/67 106/12/67 105/12/67
f 98/12/68 99/12/68 107/12/68 106/12/68
f 99/12/69 92/12/69 100/12/69 107/12/69
f 108/13/6 109/13/6 110/13/70
f 109/13/6 111/13/70 110/13/70
f 111/13/70 112/13/71 110/13/70
f 112/13/71 113/13/70 110/13/70
f 113/13/70 114/13/70 110/13/70
f 114/13/70 115/13/72 110/13/70
f 115/13/72 116/13/70 110/13/70
f 116/13/70 108/13/6 110/13/70
f 100/12/73 101/12/73 109/12/73 108/12/73
f 101/12/74 102/12/74 111/12/74 109/12/74
f 102/12/75 103/12/75 112/12/75 111/12/75
f 103/12/76 104/12/76 113/12/76 112/12/76
f 104/12/77 105/12/77 114/12/77 113/12/77
f 105/12/78 106/12/78 115/12/78 114/12/78
f 106/12/79 107/12/79 116/12/79 115/12/79
f 107/12/80 100/12/80 108/12/80 116/12/80
usemtl Cellphone_black_02
f 75/12/53 76/12/53 84/12/53 83/12/53
f 76/12/54 77/12/54 85/12/54 84/12/54
f 77/12/55 78/12/55 86/12/55 85/12/55
f 78/12/56 79/12/56 87/12/56 86/12/56
f 79/12/57 80/12/57 88/12/57 87/12/57
f 80/12/58 81/12/58 89/12/58 88/12/58
f 81/12/59 82/12/59 90/12/59 89/12/59
f 82/12/60 75/12/60 83/12/60 90/12/60
f 83/12/12 84/12/8 91/12/5
f 84/12/8 85/12/8 91/12/5
f 85/12/8 86/12/5 91/12/5
f 86/12/5 87/12/61 91/12/5
f 87/12/61 88/12/61 91/12/5
f 88/12/61 89/12/5 91/12/5
f 89/12/5 90/12/12 91/12/5
f 90/12/12 83/12/12 91/12/5
usemtl screen_black
f 10/2/5 9/3/5 11/4/5 12/5/5
