# Blender 4.1.1
# www.blender.org
mtllib clock.mtl
o clock-home
v 0.000000 0.165000 0.016495
v -0.082500 0.142894 0.016495
v -0.142894 0.082500 0.016495
v -0.165000 -0.000000 0.016495
v -0.142894 -0.082500 0.016495
v -0.082500 -0.142894 0.016495
v 0.000000 -0.165000 0.016495
v 0.082500 -0.142894 0.016495
v 0.142894 -0.082500 0.016495
v 0.165000 -0.000000 0.016495
v 0.142894 0.082500 0.016495
v 0.082500 0.142894 0.016495
v -0.037391 0.064763 -0.000005
v 0.000000 0.074782 -0.000005
v -0.064763 0.037391 -0.000005
v -0.074782 -0.000000 -0.000005
v -0.064763 -0.037391 -0.000005
v -0.037391 -0.064763 -0.000005
v 0.000000 -0.074782 -0.000005
v 0.037391 -0.064763 -0.000005
v 0.064763 -0.037391 -0.000005
v 0.074782 -0.000000 -0.000005
v 0.064763 0.037391 -0.000005
v 0.037391 0.064763 -0.000005
v -0.070935 0.122863 0.016496
v -0.000000 0.141869 0.016496
v -0.122863 0.070935 0.016496
v -0.141869 -0.000000 0.016496
v -0.122863 -0.070935 0.016496
v -0.070935 -0.122863 0.016496
v 0.000000 -0.141870 0.016496
v 0.070935 -0.122863 0.016496
v 0.122863 -0.070935 0.016496
v 0.141869 -0.000000 0.016496
v 0.122863 0.070935 0.016496
v 0.070935 0.122863 0.016496
v 0.000000 -0.000000 -0.016505
v 0.000000 0.010436 0.016525
v -0.009204 0.005122 0.016525
v -0.009204 -0.005506 0.016525
v 0.000000 -0.010819 0.016525
v 0.009204 -0.005506 0.016525
v 0.009204 0.005122 0.016525
v 0.000000 0.022749 0.006525
v -0.019867 0.011278 0.006525
v -0.019867 -0.011662 0.006525
v 0.000000 -0.023132 0.006525
v 0.019867 -0.011662 0.006525
v 0.019867 0.011278 0.006525
v -0.070332 0.098687 0.016525
v -0.050465 0.110157 0.016525
v -0.070332 0.098687 0.006525
v -0.050465 0.110157 0.006525
v -0.029944 -0.074997 0.016525
v -0.049811 -0.063526 0.016525
v -0.029944 -0.074997 0.006525
v -0.049811 -0.063526 0.006525
v -0.008373 -0.148587 -0.000798
v 0.006280 -0.106835 0.007010
v -0.008373 -0.148587 0.007010
v 0.008373 -0.148587 0.007010
v -0.006280 -0.106835 -0.000798
v -0.068866 0.119279 -0.000005
v -0.000000 0.137732 -0.000005
v -0.119279 0.068866 -0.000005
v -0.137732 -0.000000 -0.000005
v -0.119279 -0.068866 -0.000005
v -0.068866 -0.119279 -0.000005
v 0.000000 -0.137732 -0.000005
v 0.068866 -0.119279 -0.000005
v 0.119279 -0.068866 -0.000005
v 0.137732 -0.000000 -0.000005
v 0.119279 0.068866 -0.000005
v 0.068866 0.119279 -0.000005
v 0.000000 0.037391 -0.000005
v 0.000000 -0.037391 -0.000005
v 0.000000 -0.000000 -0.000005
v 0.008373 -0.148587 -0.000798
v -0.006280 -0.106835 0.007010
v 0.006280 -0.106835 -0.000798
v -0.082500 0.142894 -0.016505
v 0.000000 0.165000 -0.016505
v -0.142894 0.082500 -0.016505
v -0.165000 -0.000000 -0.016505
v -0.142894 -0.082500 -0.016505
v -0.082500 -0.142894 -0.016505
v 0.000000 -0.165000 -0.016505
v 0.082500 -0.142894 -0.016505
v 0.142894 -0.082500 -0.016505
v 0.165000 -0.000000 -0.016505
v 0.142894 0.082500 -0.016505
v 0.082500 0.142894 -0.016505
v 0.008373 0.148587 -0.000798
v -0.008373 0.148587 -0.000798
v 0.006280 0.106835 0.007010
v -0.006280 0.106835 0.007010
v 0.008373 0.148587 0.007010
v -0.008373 0.148587 0.007010
v 0.006280 0.106835 -0.000798
v -0.006280 0.106835 -0.000798
v 0.148587 -0.008373 -0.000798
v 0.148587 0.008373 -0.000798
v 0.106835 -0.006280 0.007010
v 0.106835 0.006280 0.007010
v 0.148587 -0.008373 0.007010
v 0.148587 0.008373 0.007010
v 0.106835 -0.006280 -0.000798
v 0.106835 0.006280 -0.000798
v -0.148587 0.008373 -0.000798
v -0.148587 -0.008373 -0.000798
v -0.106835 0.006280 0.007010
v -0.106835 -0.006280 0.007010
v -0.148587 0.008373 0.007010
v -0.148587 -0.008373 0.007010
v -0.106835 0.006280 -0.000798
v -0.106835 -0.006280 -0.000798
v -0.019867 0.011278 0.016525
v 0.000000 0.022749 0.016525
v -0.019867 -0.011662 0.016525
v 0.000000 -0.023132 0.016525
v 0.019867 -0.011662 0.016525
v 0.019867 0.011278 0.016525
v 0.000000 0.004529 -0.002288
v -0.004088 0.002169 -0.002288
v -0.004088 -0.002552 -0.002288
v 0.000000 -0.004913 -0.002288
v 0.004088 -0.002552 -0.002288
v 0.004088 0.002169 -0.002288
vn -0.0000 -0.0000 1.0000
vn 0.2515 -0.9388 0.2354
vn 0.6872 -0.6872 0.2354
vn 0.9388 -0.2515 0.2354
vn 0.9388 0.2515 0.2354
vn 0.6872 0.6872 0.2354
vn 0.2515 0.9388 0.2354
vn -0.2515 0.9388 0.2354
vn -0.6872 0.6872 0.2354
vn -0.9388 0.2515 0.2354
vn -0.9388 -0.2515 0.2354
vn -0.6872 -0.6872 0.2354
vn -0.2515 -0.9388 0.2354
vn -0.9659 0.2588 -0.0000
vn 0.9659 0.2588 -0.0000
vn 0.2588 -0.9659 -0.0000
vn -0.9659 -0.2588 -0.0000
vn 0.7071 0.7071 -0.0000
vn -0.2588 0.9659 -0.0000
vn 0.7071 -0.7071 -0.0000
vn -0.7071 -0.7071 -0.0000
vn 0.2588 0.9659 -0.0000
vn -0.7071 0.7071 -0.0000
vn 0.9659 -0.2588 -0.0000
vn -0.2588 -0.9659 -0.0000
vn 1.0000 -0.0000 -0.0000
vn -0.8660 -0.5000 -0.0000
vn 0.5000 0.8660 -0.0000
vn 0.5000 -0.8660 -0.0000
vn -1.0000 -0.0000 -0.0000
vn -0.5000 0.8660 -0.0000
vn 0.8660 0.5000 -0.0000
vn -0.5000 -0.8660 -0.0000
vn 0.8660 -0.5000 -0.0000
vn -0.8660 0.5000 -0.0000
vn 0.9987 0.0501 -0.0000
vn -0.0000 1.0000 -0.0000
vn -0.9987 0.0501 -0.0000
vn -0.0000 -1.0000 -0.0000
vn -0.0000 -0.0000 -1.0000
vn -0.9987 -0.0501 -0.0000
vn 0.9987 -0.0501 -0.0000
vn -0.0501 0.9987 -0.0000
vn -0.0501 -0.9987 -0.0000
vn 0.0501 -0.9987 -0.0000
vn 0.0501 0.9987 -0.0000
vn -0.2438 0.4223 -0.8730
vn -0.4876 -0.0000 -0.8730
vn 0.2438 0.4223 -0.8730
vn 0.2438 -0.4223 -0.8730
vn -0.2438 -0.4223 -0.8730
vn 0.4876 -0.0000 -0.8730
vt 0.203806 0.758438
vt 0.217626 0.706861
vt 0.265499 0.734501
vt 0.293139 0.782374
vt 0.584125 0.383068
vt 0.510874 0.510336
vt 0.481734 0.480753
vt 0.544097 0.372018
vt 0.583928 0.236225
vt 0.543738 0.246670
vt 0.510336 0.109154
vt 0.480753 0.138294
vt 0.383068 0.035904
vt 0.372018 0.075931
vt 0.236226 0.036101
vt 0.246670 0.076290
vt 0.109155 0.109692
vt 0.138295 0.139276
vt 0.035904 0.236960
vt 0.075931 0.248010
vt 0.036101 0.383803
vt 0.076290 0.373358
vt 0.109692 0.510874
vt 0.139276 0.481734
vt 0.236960 0.584125
vt 0.248010 0.544097
vt 0.383803 0.583928
vt 0.373359 0.543738
vt 0.620028 0.393082
vt 0.536960 0.536960
vt 0.620028 0.226946
vt 0.536960 0.083068
vt 0.393082 0.000000
vt 0.226946 0.000000
vt 0.083068 0.083068
vt 0.000000 0.226946
vt 0.000000 0.393082
vt 0.083068 0.536960
vt 0.226946 0.620028
vt 0.393082 0.620028
vt 0.498101 0.260753
vt 0.448271 0.173310
vt 0.171757 0.446718
vt 0.258632 0.497532
vt 0.173310 0.171757
vt 0.122496 0.258632
vt 0.361396 0.122496
vt 0.359275 0.498100
vt 0.446719 0.448271
vt 0.497532 0.361396
vt 0.121928 0.359275
vt 0.260754 0.121928
vt 0.527682 0.620028
vt 0.540825 0.627617
vt 0.540825 0.642793
vt 0.527682 0.650381
vt 0.514539 0.642793
vt 0.514539 0.627617
vt 0.634963 0.187842
vt 0.620028 0.192103
vt 0.621838 0.157867
vt 0.634191 0.162654
vt 0.696935 0.193611
vt 0.719795 0.270103
vt 0.702182 0.281434
vt 0.658316 0.213259
vt 0.694117 0.151343
vt 0.723676 0.024401
vt 0.737642 0.015358
vt 0.711461 0.152322
vt 0.641720 0.129477
vt 0.654858 0.136874
vt 0.643144 0.224749
vt 0.713596 0.190999
vt 0.702798 0.020058
vt 0.696805 0.000000
vt 0.737642 0.280210
vt 0.698766 0.297414
vt 0.398811 0.637835
vt 0.392275 0.679228
vt 0.379972 0.697165
vt 0.386975 0.623336
vt 0.414282 0.638973
vt 0.411884 0.680705
vt 0.424827 0.620028
vt 0.424827 0.694035
vt 0.114472 0.885528
vt 0.162346 0.913168
vt 0.139079 1.000000
vt 0.050907 0.949094
vt 0.086833 0.837654
vt 0.000000 0.860921
vt 0.086833 0.782374
vt 0.000000 0.759108
vt 0.114472 0.734501
vt 0.050907 0.670935
vt 0.162346 0.706861
vt 0.139079 0.620028
vt 0.240892 0.620028
vt 0.329065 0.670935
vt 0.379972 0.759108
vt 0.293139 0.837654
vt 0.379972 0.860921
vt 0.265499 0.885528
vt 0.329065 0.949093
vt 0.217626 0.913168
vt 0.240892 1.000000
vt 0.176166 0.861591
vt 0.189986 0.810014
vt 0.310014 0.310014
vt 0.638867 0.586211
vt 0.632332 0.627604
vt 0.620028 0.645541
vt 0.627031 0.571712
vt 0.654339 0.587349
vt 0.651941 0.629081
vt 0.664884 0.642412
vt 0.664884 0.568405
vt 0.488522 0.637835
vt 0.481987 0.679228
vt 0.469683 0.697165
vt 0.476686 0.623336
vt 0.503994 0.638973
vt 0.501596 0.680705
vt 0.514539 0.694035
vt 0.514539 0.620028
vt 0.443666 0.637835
vt 0.437131 0.679228
vt 0.424827 0.697165
vt 0.431830 0.623336
vt 0.459138 0.638973
vt 0.456740 0.680705
vt 0.469683 0.694035
vt 0.469683 0.620028
vt 0.675819 0.164468
vt 0.659434 0.157208
vt 0.677100 0.182687
vt 0.661540 0.190707
vt 0.648606 0.181263
vt 0.647263 0.167261
vt 0.677356 0.419968
vt 0.646553 0.432882
vt 0.649716 0.405817
vt 0.655529 0.403712
vt 0.681544 0.386820
vt 0.656612 0.397656
vt 0.620028 0.412722
vt 0.644961 0.401886
vt 0.624217 0.379574
vt 0.655019 0.366660
vt 0.651856 0.393726
vt 0.646044 0.395831
vt 0.734173 0.555491
vt 0.703371 0.568405
vt 0.707648 0.297414
vt 0.734173 0.317574
s 1
usemtl plastic_clock_flat
f 76/1/1 19/2/1 20/3/1 21/4/1
f 13/87/1 14/88/1 64/89/1 63/90/1
f 15/91/1 13/87/1 63/90/1 65/92/1
f 16/93/1 15/91/1 65/92/1 66/94/1
f 17/95/1 16/93/1 66/94/1 67/96/1
f 18/97/1 17/95/1 67/96/1 68/98/1
f 19/2/1 18/97/1 68/98/1 69/99/1
f 20/3/1 19/2/1 69/99/1 70/100/1
f 21/4/1 20/3/1 70/100/1 71/101/1
f 22/102/1 21/4/1 71/101/1 72/103/1
f 23/104/1 22/102/1 72/103/1 73/105/1
f 24/106/1 23/104/1 73/105/1 74/107/1
f 14/88/1 24/106/1 74/107/1 64/89/1
f 76/1/1 17/95/1 18/97/1 19/2/1
f 14/88/1 75/108/1 23/104/1 24/106/1
f 13/87/1 15/91/1 75/108/1 14/88/1
f 77/109/1 76/1/1 21/4/1 22/102/1
f 16/93/1 17/95/1 76/1/1 77/109/1
f 75/108/1 77/109/1 22/102/1 23/104/1
f 15/91/1 16/93/1 77/109/1 75/108/1
usemtl plastic_clock
f 25/5/1 26/6/1 1/7/1 2/8/1
f 27/9/1 25/5/1 2/8/1 3/10/1
f 28/11/1 27/9/1 3/10/1 4/12/1
f 29/13/1 28/11/1 4/12/1 5/14/1
f 30/15/1 29/13/1 5/14/1 6/16/1
f 31/17/1 30/15/1 6/16/1 7/18/1
f 32/19/1 31/17/1 7/18/1 8/20/1
f 33/21/1 32/19/1 8/20/1 9/22/1
f 34/23/1 33/21/1 9/22/1 10/24/1
f 35/25/1 34/23/1 10/24/1 11/26/1
f 36/27/1 35/25/1 11/26/1 12/28/1
f 26/6/1 36/27/1 12/28/1 1/7/1
f 63/29/2 64/30/2 26/6/2 25/5/2
f 65/31/3 63/29/3 25/5/3 27/9/3
f 66/32/4 65/31/4 27/9/4 28/11/4
f 67/33/5 66/32/5 28/11/5 29/13/5
f 68/34/6 67/33/6 29/13/6 30/15/6
f 69/35/7 68/34/7 30/15/7 31/17/7
f 70/36/8 69/35/8 31/17/8 32/19/8
f 71/37/9 70/36/9 32/19/9 33/21/9
f 72/38/10 71/37/10 33/21/10 34/23/10
f 73/39/11 72/38/11 34/23/11 35/25/11
f 74/40/12 73/39/12 35/25/12 36/27/12
f 64/30/13 74/40/13 36/27/13 26/6/13
f 4/12/14 3/10/14 83/41/14 84/42/14
f 11/26/15 10/24/15 90/43/15 91/44/15
f 8/20/16 7/18/16 87/45/16 88/46/16
f 5/14/17 4/12/17 84/42/17 85/47/17
f 12/28/18 11/26/18 91/44/18 92/48/18
f 2/8/19 1/7/19 82/49/19 81/50/19
f 9/22/20 8/20/20 88/46/20 89/51/20
f 6/16/21 5/14/21 85/47/21 86/52/21
f 1/7/22 12/28/22 92/48/22 82/49/22
f 3/10/23 2/8/23 81/50/23 83/41/23
f 10/24/24 9/22/24 89/51/24 90/43/24
f 7/18/25 6/16/25 86/52/25 87/45/25
f 39/53/1 40/54/1 41/55/1 42/56/1 43/57/1 38/58/1
f 121/59/26 48/60/26 49/61/26 122/62/26
f 119/63/1 55/64/1 54/65/1 120/66/1
f 117/67/27 50/68/27 52/69/27 45/70/27
f 122/62/28 49/61/28 44/71/28 118/72/28
f 120/66/29 47/73/29 48/60/29 121/59/29
f 117/67/30 45/70/30 46/74/30 119/63/30
f 51/75/31 53/76/31 52/69/31 50/68/31
f 44/71/32 53/76/32 51/75/32 118/72/32
f 118/72/1 51/75/1 50/68/1 117/67/1
f 55/64/33 57/77/33 56/78/33 54/65/33
f 120/66/34 54/65/34 56/78/34 47/73/34
f 46/74/35 57/77/35 55/64/35 119/63/35
f 59/79/36 61/80/36 78/81/36 80/82/36
f 79/83/1 60/84/1 61/80/1 59/79/1
f 79/83/37 59/79/37 80/82/37 62/85/37
f 60/84/38 79/83/38 62/85/38 58/86/38
f 61/80/39 60/84/39 58/86/39 78/81/39
f 37/110/40 81/50/40 82/49/40
f 37/110/40 83/41/40 81/50/40
f 37/110/40 84/42/40 83/41/40
f 37/110/40 85/47/40 84/42/40
f 37/110/40 86/52/40 85/47/40
f 37/110/40 87/45/40 86/52/40
f 37/110/40 88/46/40 87/45/40
f 37/110/40 89/51/40 88/46/40
f 37/110/40 90/43/40 89/51/40
f 37/110/40 91/44/40 90/43/40
f 37/110/40 92/48/40 91/44/40
f 37/110/40 82/49/40 92/48/40
f 96/111/41 98/112/41 94/113/41 100/114/41
f 95/115/1 97/116/1 98/112/1 96/111/1
f 98/112/37 97/116/37 93/117/37 94/113/37
f 95/115/39 96/111/39 100/114/39 99/118/39
f 97/116/42 95/115/42 99/118/42 93/117/42
f 104/119/43 106/120/43 102/121/43 108/122/43
f 103/123/1 105/124/1 106/120/1 104/119/1
f 106/120/26 105/124/26 101/125/26 102/121/26
f 103/123/30 104/119/30 108/122/30 107/126/30
f 105/124/44 103/123/44 107/126/44 101/125/44
f 112/127/45 114/128/45 110/129/45 116/130/45
f 111/131/1 113/132/1 114/128/1 112/127/1
f 114/128/30 113/132/30 109/133/30 110/129/30
f 111/131/26 112/127/26 116/130/26 115/134/26
f 113/132/46 111/131/46 115/134/46 109/133/46
f 39/135/1 38/136/1 118/72/1 117/67/1
f 40/137/1 39/135/1 117/67/1 119/63/1
f 41/138/1 40/137/1 119/63/1 120/66/1
f 42/139/1 41/138/1 120/66/1 121/59/1
f 43/140/1 42/139/1 121/59/1 122/62/1
f 38/136/1 43/140/1 122/62/1 118/72/1
f 45/141/47 44/142/47 123/143/47 124/144/47
f 46/145/48 45/141/48 124/144/48 125/146/48
f 44/142/49 49/147/49 128/148/49 123/143/49
f 48/149/50 47/150/50 126/151/50 127/152/50
f 47/150/51 46/145/51 125/146/51 126/151/51
f 49/147/52 48/149/52 127/152/52 128/148/52
f 52/153/40 53/154/40 44/142/40 45/141/40
f 56/155/40 57/156/40 46/145/40 47/150/40
