# Blender 4.1.1
# www.blender.org
mtllib FolderTray.mtl
o FolderTray
v -0.129946 0.043937 0.138909
v 0.085779 0.043937 0.187547
v -0.071920 0.043937 -0.183831
v 0.141921 0.043937 -0.144094
v -0.129946 0.055828 0.138909
v 0.085779 0.055828 0.187547
v 0.141921 0.055828 -0.144094
v -0.071920 0.055828 -0.183831
v 0.130162 0.050270 -0.054109
v 0.036850 0.050270 -0.161072
v 0.130075 0.062160 -0.053575
v 0.036206 0.062160 -0.161177
v 0.127866 0.043937 -0.035386
v 0.127888 0.055828 -0.035521
v 0.006697 0.043937 -0.170962
v 0.006862 0.055828 -0.170935
v 0.063981 0.043937 -0.156852
v 0.063135 0.055828 -0.156990
v 0.130858 0.043937 -0.076501
v 0.130738 0.055828 -0.075770
v 0.098524 0.047475 0.131022
v -0.094565 0.047475 -0.018025
v -0.097000 0.059365 -0.007225
v 0.096089 0.059366 0.141822
v -0.096321 0.043937 -0.034759
v -0.097109 0.055828 -0.029943
v 0.103199 0.043937 0.115307
v 0.102411 0.055828 0.120122
v 0.150137 0.018317 0.194596
v 0.150137 0.018317 -0.187703
v -0.131154 0.018317 0.194596
v -0.131154 0.018317 -0.187703
v -0.131154 0.018317 0.077764
v -0.150783 0.018317 0.187645
v -0.150783 0.018317 0.084714
v 0.150137 0.044036 0.194596
v -0.127751 0.044036 0.077764
v 0.150137 0.044036 -0.187703
v -0.127751 0.044036 -0.187703
v -0.127751 0.036046 0.077764
v -0.127751 0.036046 -0.187703
v -0.131154 0.026410 -0.187703
v -0.131154 0.026410 0.077764
v -0.150783 0.026410 0.084714
v -0.150783 0.026410 0.187645
v -0.131154 0.026410 0.194596
v 0.137625 0.026410 0.194596
v 0.137625 0.026410 -0.187703
v 0.137625 0.036047 0.194596
v 0.137625 0.036046 -0.187703
v 0.142314 0.031228 0.194596
v 0.142314 0.031228 -0.187703
v 0.155851 0.031228 -0.187703
v 0.155851 0.031228 0.194596
v -0.057205 0.044036 -0.047246
v -0.057205 0.044036 -0.172571
v -0.109332 0.044036 -0.172571
v -0.109332 0.044036 -0.047246
v -0.111628 0.044036 0.084899
v -0.111628 0.044036 0.194596
v -0.111628 0.036047 0.194596
v -0.111628 0.036046 0.084899
v -0.126418 0.026410 0.101140
v -0.126418 0.026410 0.175588
v -0.144228 0.026410 0.175588
v -0.144228 0.026410 0.101140
v 0.170530 0.010221 -0.213490
v 0.164583 0.016605 -0.203413
v 0.139542 0.016605 -0.217556
v 0.145490 0.010221 -0.227634
v 0.164518 0.113098 -0.245132
v 0.189558 0.113098 -0.230988
v 0.182322 0.113098 -0.218726
v 0.157281 0.113098 -0.232870
v -0.070714 0.125387 0.251934
v -0.060060 0.078430 0.247192
v -0.051987 0.080373 0.231645
v -0.061362 0.125387 0.230223
v 0.060060 0.078430 0.247192
v 0.051987 0.080373 0.231645
v 0.070714 0.125387 0.251934
v 0.061362 0.125387 0.230223
v -0.194622 0.125387 0.247826
v -0.171240 0.125387 0.222987
v 0.194622 0.125387 0.247826
v 0.171240 0.125387 0.222987
v 0.194622 0.125387 -0.247826
v 0.171240 0.125387 -0.222987
v 0.070714 0.125387 -0.251934
v 0.061362 0.125387 -0.230223
v -0.194622 0.125387 -0.247826
v -0.070714 0.125387 -0.251934
v -0.171240 0.125387 -0.222987
v -0.061362 0.125387 -0.230223
v -0.060060 0.078430 -0.247192
v -0.051987 0.080373 -0.231645
v 0.060060 0.078430 -0.247192
v 0.051987 0.080373 -0.231645
v -0.077849 0.112431 0.247826
v -0.067195 0.067601 0.245994
v -0.059122 0.067601 0.230096
v -0.068496 0.112431 0.226115
v 0.067195 0.067601 0.245994
v 0.059122 0.067601 0.230096
v 0.077849 0.112431 0.247826
v 0.068496 0.112431 0.226115
v -0.194622 0.112431 0.247826
v -0.171240 0.112431 0.222987
v 0.194622 0.112431 0.247826
v 0.171240 0.112431 0.222987
v 0.194622 0.112431 -0.247826
v 0.171240 0.112431 -0.222987
v 0.077849 0.112431 -0.247826
v 0.068496 0.112431 -0.226115
v -0.077849 0.112431 -0.247826
v -0.194622 0.112431 -0.247826
v -0.171240 0.112431 -0.222987
v -0.068496 0.112431 -0.226115
v -0.067195 0.067601 -0.245994
v -0.059122 0.067601 -0.230096
v 0.067195 0.067601 -0.245994
v 0.059122 0.067601 -0.230096
v 0.170530 0.010221 0.213490
v 0.164583 0.016605 0.203413
v 0.139542 0.016605 0.217556
v 0.145490 0.010221 0.227634
v 0.164518 0.113098 0.245132
v 0.189558 0.113098 0.230988
v 0.182322 0.113098 0.218726
v 0.157281 0.113098 0.232870
v 0.066651 0.004198 0.223938
v 0.066651 0.004198 -0.225337
v 0.066651 0.016605 0.213430
v 0.066651 0.016605 -0.214828
v 0.037737 0.016605 0.213430
v 0.037737 0.016605 -0.214828
v 0.037737 0.004198 0.223938
v 0.037737 0.004198 -0.225337
v 0.037737 0.068947 -0.244226
v 0.066651 0.068947 -0.244226
v 0.037737 0.068947 -0.234317
v 0.066651 0.068947 -0.234317
v 0.037737 0.068947 0.242827
v 0.066651 0.068947 0.242827
v 0.066651 0.068947 0.232918
v 0.037737 0.068947 0.232918
v -0.170530 0.010221 -0.213490
v -0.164583 0.016605 -0.203413
v -0.139542 0.016605 -0.217556
v -0.145490 0.010221 -0.227634
v -0.164518 0.113098 -0.245132
v -0.189558 0.113098 -0.230988
v -0.182322 0.113098 -0.218726
v -0.157281 0.113098 -0.232870
v -0.165051 0.004198 0.125173
v 0.165099 0.004198 0.125173
v -0.154309 0.016605 0.125173
v 0.154357 0.016605 0.125173
v -0.154309 0.016605 0.096887
v 0.154357 0.016605 0.096887
v -0.165051 0.004198 0.096887
v 0.165099 0.004198 0.096887
v 0.191256 0.112431 0.096887
v 0.191256 0.112431 0.125173
v 0.176783 0.112431 0.096887
v 0.176783 0.112431 0.125173
v -0.191207 0.112431 0.096887
v -0.191207 0.112431 0.125173
v -0.176735 0.112431 0.125173
v -0.176735 0.112431 0.096887
v -0.172426 -0.000000 -0.230125
v 0.171675 -0.000000 -0.230125
v 0.151467 -0.000000 -0.208360
v -0.152218 -0.000000 -0.208360
v 0.171675 0.000000 0.230125
v 0.151467 0.000000 0.208360
v -0.172426 0.000000 0.230125
v -0.152218 0.000000 0.208360
v -0.172426 0.017633 -0.230125
v 0.171675 0.017633 -0.230125
v 0.151467 0.017633 -0.208360
v -0.152218 0.017633 -0.208360
v 0.171675 0.017633 0.230125
v 0.151467 0.017633 0.208360
v -0.172426 0.017633 0.230125
v -0.152218 0.017633 0.208360
v -0.165051 0.004198 0.014143
v 0.165099 0.004198 0.014143
v -0.154309 0.016605 0.014143
v 0.154357 0.016605 0.014143
v -0.154309 0.016605 -0.014143
v 0.154357 0.016605 -0.014143
v -0.165051 0.004198 -0.014143
v 0.165099 0.004198 -0.014143
v 0.191256 0.112431 -0.014143
v 0.191256 0.112431 0.014143
v 0.176783 0.112431 -0.014143
v 0.176783 0.112431 0.014143
v -0.191207 0.112431 -0.014143
v -0.191207 0.112431 0.014143
v -0.176735 0.112431 0.014143
v -0.176735 0.112431 -0.014143
v -0.170530 0.010221 0.213490
v -0.164583 0.016605 0.203413
v -0.139542 0.016605 0.217556
v -0.145490 0.010221 0.227634
v -0.164518 0.113098 0.245132
v -0.189558 0.113098 0.230988
v -0.182322 0.113098 0.218726
v -0.157281 0.113098 0.232870
v -0.165051 0.004198 -0.101420
v 0.165099 0.004198 -0.101420
v -0.154309 0.016605 -0.101420
v 0.154357 0.016605 -0.101420
v -0.154309 0.016605 -0.129706
v 0.154357 0.016605 -0.129706
v -0.165051 0.004198 -0.129706
v 0.165099 0.004198 -0.129706
v 0.191256 0.112431 -0.129706
v 0.191256 0.112431 -0.101420
v 0.176783 0.112431 -0.129706
v 0.176783 0.112431 -0.101420
v -0.191207 0.112431 -0.129706
v -0.191207 0.112431 -0.101420
v -0.176735 0.112431 -0.101420
v -0.176735 0.112431 -0.129706
v -0.037205 0.004198 0.223938
v -0.037205 0.004198 -0.225337
v -0.037205 0.016605 0.213430
v -0.037205 0.016605 -0.214828
v -0.066119 0.016605 0.213430
v -0.066119 0.016605 -0.214828
v -0.066119 0.004198 0.223938
v -0.066119 0.004198 -0.225337
v -0.066119 0.068947 -0.244226
v -0.037205 0.068947 -0.244226
v -0.066119 0.068947 -0.234317
v -0.037205 0.068947 -0.234317
v -0.066119 0.068947 0.242827
v -0.037205 0.068947 0.242827
v -0.037205 0.068947 0.232918
v -0.066119 0.068947 0.232918
vn -0.0000 1.0000 -0.0000
vn 0.0144 -0.9994 -0.0299
vn -0.2199 -0.0000 0.9755
vn 0.9755 -0.0000 0.2199
vn 0.1615 -0.0000 -0.9869
vn 0.1540 -0.0005 -0.9881
vn 0.1611 -0.0000 -0.9869
vn -0.9869 -0.0000 -0.1615
vn -0.2988 0.9170 0.2642
vn -0.2726 -0.9335 0.2331
vn 0.9996 0.0072 0.0284
vn 0.3130 0.0032 -0.9498
vn 0.2900 -0.9220 -0.2565
vn 0.9926 0.0007 0.1212
vn 0.2747 0.9324 -0.2349
vn 0.1536 -0.0005 -0.9881
vn -0.0000 -1.0000 -0.0000
vn 0.9869 -0.0000 0.1615
vn -0.1506 -0.9686 0.1977
vn 0.9543 -0.0627 0.2924
vn -0.9755 -0.0000 -0.2199
vn -0.0161 0.9993 0.0332
vn -0.9795 -0.1850 0.0795
vn 0.1079 0.9840 -0.1416
vn -0.0000 -0.0000 1.0000
vn -1.0000 -0.0000 -0.0000
vn -0.0000 -0.0000 -1.0000
vn -0.3338 -0.0000 -0.9426
vn -0.3338 -0.0000 0.9426
vn -0.7166 -0.6974 -0.0000
vn 0.9132 0.4075 -0.0000
vn -0.7166 0.6974 -0.0000
vn 0.9144 -0.4047 -0.0000
vn -0.4047 -0.0000 0.9145
vn -0.9906 -0.0000 0.1367
vn 0.4783 -0.2325 -0.8468
vn 0.8501 -0.0709 0.5219
vn -0.4794 0.2228 0.8488
vn -0.8500 0.0709 -0.5219
vn 0.8878 0.1780 0.4245
vn -0.0000 0.9923 0.1240
vn -0.8878 0.1780 0.4245
vn 0.8878 0.1780 -0.4245
vn -0.8878 0.1780 -0.4245
vn -0.0000 0.9923 -0.1240
vn -0.0580 -0.1421 0.9882
vn -0.1780 -0.1114 0.9777
vn -0.0438 -0.1455 0.9884
vn 0.3444 0.0154 -0.9387
vn -0.0000 -0.1100 0.9939
vn -0.0000 0.1204 -0.9927
vn 0.1780 -0.1114 0.9777
vn 0.0580 -0.1421 0.9882
vn 0.0438 -0.1455 0.9884
vn -0.3444 0.0154 -0.9387
vn -0.0169 -0.1520 0.9882
vn 0.0482 0.1435 -0.9885
vn 0.0169 -0.1520 0.9882
vn -0.0482 0.1435 -0.9885
vn 1.0000 -0.0000 -0.0000
vn 0.0169 -0.1520 -0.9882
vn 0.0580 -0.1421 -0.9882
vn 0.0438 -0.1455 -0.9884
vn -0.0482 0.1435 0.9885
vn -0.0580 -0.1421 -0.9882
vn -0.0169 -0.1520 -0.9882
vn -0.0438 -0.1455 -0.9884
vn 0.0482 0.1435 0.9885
vn -0.1780 -0.1114 -0.9777
vn 0.3444 0.0154 0.9387
vn 0.1780 -0.1114 -0.9777
vn -0.3444 0.0154 0.9387
vn -0.0000 -0.1100 -0.9939
vn -0.0000 0.1204 0.9927
vn -0.8875 -0.2081 -0.4112
vn 0.8875 -0.2081 -0.4112
vn -0.8875 -0.2081 0.4112
vn 0.8875 -0.2081 0.4112
vn 0.4783 -0.2325 0.8468
vn 0.8501 -0.0709 -0.5219
vn -0.4794 0.2228 -0.8488
vn -0.8500 0.0709 0.5219
vn -0.0000 -0.2800 -0.9600
vn -0.0000 0.3489 0.9371
vn -0.0000 -0.2800 0.9600
vn -0.0000 0.3489 -0.9371
vn -0.4783 -0.2325 -0.8468
vn -0.8501 -0.0709 0.5219
vn 0.4794 0.2228 0.8488
vn 0.8500 0.0709 -0.5219
vn 0.9720 -0.2349 -0.0000
vn -0.9737 0.2279 -0.0000
vn -0.9720 -0.2349 -0.0000
vn 0.9737 0.2279 -0.0000
vn -0.4783 -0.2325 0.8468
vn -0.8501 -0.0709 -0.5219
vn 0.4794 0.2228 -0.8488
vn 0.8500 0.0709 0.5219
vt 0.744717 0.961708
vt 0.520073 0.962908
vt 0.743677 0.766895
vt 0.113546 0.055604
vt 0.142877 0.507333
vt 0.745072 0.177986
vt 0.734507 0.015282
vt 0.743054 0.146900
vt 0.522484 0.962895
vt 0.132908 0.978121
vt 0.130638 0.553070
vt 0.130564 0.539339
vt 0.751594 0.704919
vt 0.443386 0.962705
vt 0.357539 0.976922
vt 0.753455 0.653777
vt 0.751602 0.706439
vt 0.445222 0.962695
vt 0.743688 0.768982
vt 0.357070 0.976924
vt 0.753453 0.653394
vt 0.751086 0.209990
vt 0.751158 0.223721
vt 0.140857 0.476248
vt 0.003669 0.326203
vt 0.003669 0.326203
vt 0.003669 0.326203
vt 0.332868 0.330961
vt 0.331875 0.330958
vt 0.331868 0.330545
vt 0.332868 0.330549
vt 0.003669 0.326203
vt 0.003669 0.326203
vt 0.003669 0.326203
vt 0.003669 0.326203
vt 0.003669 0.326203
vt 0.003669 0.326203
vt 0.003669 0.326203
vt 0.003669 0.326203
vt 0.003669 0.326203
vt 0.003669 0.326203
vt 0.003669 0.326203
vt 0.003669 0.326203
vt 0.112681 0.206773
vt 0.112907 0.206716
vt 0.113144 0.207659
vt 0.112918 0.207716
vt 0.101636 0.304190
vt 0.101633 0.304211
vt 0.101720 0.304215
vt 0.101722 0.304194
vt 0.101626 0.304506
vt 0.101709 0.304510
vt 0.101709 0.304497
vt 0.101625 0.304493
vt 0.101433 0.301867
vt 0.101453 0.301939
vt 0.101470 0.301936
vt 0.101459 0.301879
vt 0.101622 0.301906
vt 0.101617 0.301907
vt 0.101635 0.301829
vt 0.101635 0.301846
vt 0.101249 0.301905
vt 0.101296 0.301916
vt 0.101805 0.301800
vt 0.101790 0.301821
vt 0.102249 0.302199
vt 0.102182 0.302183
vt 0.102046 0.302259
vt 0.102006 0.302239
vt 0.101791 0.302328
vt 0.101547 0.302387
vt 0.101573 0.302343
vt 0.101788 0.302297
vt 0.101802 0.302404
vt 0.101809 0.302380
vt 0.102014 0.302345
vt 0.101992 0.302330
vt 0.101426 0.301890
vt 0.101448 0.301959
vt 0.101464 0.301956
vt 0.101451 0.301902
vt 0.101637 0.301920
vt 0.101631 0.301922
vt 0.101647 0.301848
vt 0.101647 0.301864
vt 0.101250 0.301924
vt 0.101297 0.301935
vt 0.101804 0.301818
vt 0.101790 0.301839
vt 0.102246 0.302221
vt 0.102180 0.302204
vt 0.102051 0.302273
vt 0.102012 0.302253
vt 0.101773 0.302348
vt 0.101547 0.302409
vt 0.101573 0.302365
vt 0.101770 0.302317
vt 0.101781 0.302411
vt 0.101788 0.302388
vt 0.102017 0.302345
vt 0.101994 0.302330
vt 0.101655 0.305190
vt 0.101658 0.305128
vt 0.101551 0.305122
vt 0.101548 0.305184
vt 0.101658 0.304942
vt 0.101541 0.304935
vt 0.101546 0.304897
vt 0.101661 0.304904
vt 0.100466 0.304354
vt 0.101286 0.304173
vt 0.101221 0.304145
vt 0.100506 0.304300
vt 0.100951 0.303522
vt 0.100926 0.303553
vt 0.100296 0.303633
vt 0.100342 0.303653
vt 0.100462 0.304325
vt 0.101291 0.304144
vt 0.101225 0.304115
vt 0.100502 0.304271
vt 0.100951 0.303494
vt 0.100927 0.303525
vt 0.100291 0.303605
vt 0.100338 0.303625
s 1
usemtl FolderTray_plastic
f 71/48/1 74/49/1 73/50/1 72/51/1
f 70/52/36 71/48/36 72/51/36 67/53/36
f 67/53/37 72/51/37 73/50/37 68/54/37
f 68/54/38 73/50/38 74/49/38 69/55/38
f 69/55/39 74/49/39 71/48/39 70/52/39
f 75/56/40 76/57/40 77/58/40 78/59/40
f 76/57/41 79/60/41 80/61/41 77/58/41
f 79/60/42 81/62/42 82/63/42 80/61/42
f 83/64/1 75/56/1 78/59/1 84/65/1
f 81/62/1 85/66/1 86/67/1 82/63/1
f 85/66/1 87/68/1 88/69/1 86/67/1
f 87/68/1 89/70/1 90/71/1 88/69/1
f 92/72/1 91/73/1 93/74/1 94/75/1
f 91/73/1 83/64/1 84/65/1 93/74/1
f 95/76/43 92/72/43 94/75/43 96/77/43
f 89/70/44 97/78/44 98/79/44 90/71/44
f 97/78/45 95/76/45 96/77/45 98/79/45
f 99/80/46 100/81/47 76/57/47 75/56/48
f 101/82/49 102/83/49 78/59/49 77/58/49
f 100/81/50 103/84/50 79/60/50 76/57/50
f 104/85/51 101/82/51 77/58/51 80/61/51
f 103/84/52 105/86/53 81/62/54 79/60/52
f 106/87/55 104/85/55 80/61/55 82/63/55
f 107/88/56 99/80/46 75/56/48 83/64/56
f 102/83/57 108/89/57 84/65/57 78/59/57
f 105/86/53 109/90/58 85/66/58 81/62/54
f 110/91/59 106/87/59 82/63/59 86/67/59
f 109/90/60 111/92/60 87/68/60 85/66/60
f 112/93/26 110/91/26 86/67/26 88/69/26
f 111/92/61 113/94/62 89/70/63 87/68/61
f 114/95/64 112/93/64 88/69/64 90/71/64
f 115/96/65 116/97/66 91/73/66 92/72/67
f 117/98/68 118/99/68 94/75/68 93/74/68
f 116/97/26 107/88/26 83/64/26 91/73/26
f 108/89/60 117/98/60 93/74/60 84/65/60
f 119/100/69 115/96/65 92/72/67 95/76/69
f 118/99/70 120/101/70 96/77/70 94/75/70
f 113/94/62 121/102/71 97/78/71 89/70/63
f 122/103/72 114/95/72 90/71/72 98/79/72
f 121/102/73 119/100/73 95/76/73 97/78/73
f 120/101/74 122/103/74 98/79/74 96/77/74
f 100/81/75 99/80/75 102/83/75 101/82/75
f 103/84/17 100/81/17 101/82/17 104/85/17
f 105/86/76 103/84/76 104/85/76 106/87/76
f 99/80/17 107/88/17 108/89/17 102/83/17
f 109/90/17 105/86/17 106/87/17 110/91/17
f 111/92/17 109/90/17 110/91/17 112/93/17
f 113/94/17 111/92/17 112/93/17 114/95/17
f 116/97/17 115/96/17 118/99/17 117/98/17
f 107/88/17 116/97/17 117/98/17 108/89/17
f 115/96/77 119/100/77 120/101/77 118/99/77
f 121/102/78 113/94/78 114/95/78 122/103/78
f 119/100/17 121/102/17 122/103/17 120/101/17
f 127/48/1 128/51/1 129/50/1 130/49/1
f 126/52/79 123/53/79 128/51/79 127/48/79
f 123/53/80 124/54/80 129/50/80 128/51/80
f 124/54/81 125/55/81 130/49/81 129/50/81
f 125/55/82 126/52/82 127/48/82 130/49/82
f 131/53/60 132/104/60 134/105/60 133/54/60
f 133/54/1 134/105/1 136/106/1 135/55/1
f 135/55/26 136/106/26 138/107/26 137/52/26
f 137/52/17 138/107/17 132/104/17 131/53/17
f 140/108/1 139/109/1 141/110/1 142/111/1
f 143/48/1 144/51/1 145/50/1 146/49/1
f 132/104/83 138/107/83 139/109/83 140/108/83
f 138/107/26 136/106/26 141/110/26 139/109/26
f 136/106/84 134/105/84 142/111/84 141/110/84
f 134/105/60 132/104/60 140/108/60 142/111/60
f 137/52/85 131/53/85 144/51/85 143/48/85
f 131/53/60 133/54/60 145/50/60 144/51/60
f 133/54/86 135/55/86 146/49/86 145/50/86
f 135/55/26 137/52/26 143/48/26 146/49/26
f 151/48/1 152/51/1 153/50/1 154/49/1
f 150/52/87 147/53/87 152/51/87 151/48/87
f 147/53/88 148/54/88 153/50/88 152/51/88
f 148/54/89 149/55/89 154/49/89 153/50/89
f 149/55/90 150/52/90 151/48/90 154/49/90
f 155/53/25 156/104/25 158/105/25 157/54/25
f 157/54/1 158/105/1 160/106/1 159/55/1
f 159/55/27 160/106/27 162/107/27 161/52/27
f 161/52/17 162/107/17 156/104/17 155/53/17
f 164/108/1 163/109/1 165/110/1 166/111/1
f 167/48/1 168/51/1 169/50/1 170/49/1
f 156/104/91 162/107/91 163/109/91 164/108/91
f 162/107/27 160/106/27 165/110/27 163/109/27
f 160/106/92 158/105/92 166/111/92 165/110/92
f 158/105/25 156/104/25 164/108/25 166/111/25
f 161/52/93 155/53/93 168/51/93 167/48/93
f 155/53/25 157/54/25 169/50/25 168/51/25
f 157/54/94 159/55/94 170/49/94 169/50/94
f 159/55/27 161/52/27 167/48/27 170/49/27
f 171/112/17 172/113/17 173/114/17 174/115/17
f 172/113/17 175/116/17 176/117/17 173/114/17
f 175/116/17 177/118/17 178/119/17 176/117/17
f 177/118/17 171/112/17 174/115/17 178/119/17
f 179/120/27 180/121/27 172/113/27 171/112/27
f 181/122/25 182/123/25 174/115/25 173/114/25
f 180/121/60 183/124/60 175/116/60 172/113/60
f 184/125/26 181/122/26 173/114/26 176/117/26
f 183/124/25 185/126/25 177/118/25 175/116/25
f 186/127/27 184/125/27 176/117/27 178/119/27
f 185/126/26 179/120/26 171/112/26 177/118/26
f 182/123/60 186/127/60 178/119/60 174/115/60
f 182/123/1 181/122/1 180/121/1 179/120/1
f 181/122/1 184/125/1 183/124/1 180/121/1
f 184/125/1 186/127/1 185/126/1 183/124/1
f 186/127/1 182/123/1 179/120/1 185/126/1
f 187/53/25 188/104/25 190/105/25 189/54/25
f 189/54/1 190/105/1 192/106/1 191/55/1
f 191/55/27 192/106/27 194/107/27 193/52/27
f 193/52/17 194/107/17 188/104/17 187/53/17
f 196/108/1 195/109/1 197/110/1 198/111/1
f 199/48/1 200/51/1 201/50/1 202/49/1
f 188/104/91 194/107/91 195/109/91 196/108/91
f 194/107/27 192/106/27 197/110/27 195/109/27
f 192/106/92 190/105/92 198/111/92 197/110/92
f 190/105/25 188/104/25 196/108/25 198/111/25
f 193/52/93 187/53/93 200/51/93 199/48/93
f 187/53/25 189/54/25 201/50/25 200/51/25
f 189/54/94 191/55/94 202/49/94 201/50/94
f 191/55/27 193/52/27 199/48/27 202/49/27
f 207/48/1 210/49/1 209/50/1 208/51/1
f 206/52/95 207/48/95 208/51/95 203/53/95
f 203/53/96 208/51/96 209/50/96 204/54/96
f 204/54/97 209/50/97 210/49/97 205/55/97
f 205/55/98 210/49/98 207/48/98 206/52/98
f 211/53/25 212/104/25 214/105/25 213/54/25
f 213/54/1 214/105/1 216/106/1 215/55/1
f 215/55/27 216/106/27 218/107/27 217/52/27
f 217/52/17 218/107/17 212/104/17 211/53/17
f 220/108/1 219/109/1 221/110/1 222/111/1
f 223/48/1 224/51/1 225/50/1 226/49/1
f 212/104/91 218/107/91 219/109/91 220/108/91
f 218/107/27 216/106/27 221/110/27 219/109/27
f 216/106/92 214/105/92 222/111/92 221/110/92
f 214/105/25 212/104/25 220/108/25 222/111/25
f 217/52/93 211/53/93 224/51/93 223/48/93
f 211/53/25 213/54/25 225/50/25 224/51/25
f 213/54/94 215/55/94 226/49/94 225/50/94
f 215/55/27 217/52/27 223/48/27 226/49/27
f 227/53/60 228/104/60 230/105/60 229/54/60
f 229/54/1 230/105/1 232/106/1 231/55/1
f 231/55/26 232/106/26 234/107/26 233/52/26
f 233/52/17 234/107/17 228/104/17 227/53/17
f 236/108/1 235/109/1 237/110/1 238/111/1
f 239/48/1 240/51/1 241/50/1 242/49/1
f 228/104/83 234/107/83 235/109/83 236/108/83
f 234/107/26 232/106/26 237/110/26 235/109/26
f 232/106/84 230/105/84 238/111/84 237/110/84
f 230/105/60 228/104/60 236/108/60 238/111/60
f 233/52/85 227/53/85 240/51/85 239/48/85
f 227/53/60 229/54/60 241/50/60 240/51/60
f 229/54/86 231/55/86 242/49/86 241/50/86
f 231/55/26 233/52/26 239/48/26 242/49/26
usemtl books_paper
f 7/1/1 18/2/1 20/3/1
f 1/4/2 22/5/2 21/6/2 2/7/2
f 1/4/3 2/7/3 6/7/3 5/4/3
f 2/7/4 21/6/4 24/8/4 6/7/4
f 4/1/5 17/9/6 18/2/7 7/1/5
f 3/10/8 25/11/8 26/12/8 8/10/8
f 11/13/9 12/14/9 16/15/9 14/16/9
f 9/17/10 10/18/10 17/9/10 19/19/10
f 11/13/11 9/17/11 19/19/11 20/3/11
f 12/14/12 10/18/12 15/20/12 16/15/12
f 13/21/13 15/20/13 10/18/13 9/17/13
f 14/16/14 13/21/14 9/17/14 11/13/14
f 14/16/1 16/15/1 8/10/1 26/12/1 28/22/1
f 16/15/5 15/20/5 3/10/5 8/10/5
f 20/3/15 18/2/15 12/14/15 11/13/15
f 18/2/7 17/9/6 10/18/16 12/14/16
f 19/19/17 17/9/17 4/1/17
f 20/3/18 19/19/18 4/1/18 7/1/18
f 21/6/19 22/5/19 25/11/19 27/23/19
f 24/8/20 21/6/20 27/23/20 28/22/20
f 23/24/21 22/5/21 1/4/21 5/4/21
f 24/8/22 23/24/22 5/4/22 6/7/22
f 26/12/23 25/11/23 22/5/23 23/24/23
f 28/22/24 26/12/24 23/24/24 24/8/24
f 27/23/17 25/11/17 3/10/17 15/20/17 13/21/17
f 28/22/18 27/23/18 13/21/18 14/16/18
usemtl Folder_files
f 36/25/1 59/26/1 60/27/1
f 55/28/1 56/29/1 57/30/1 58/31/1
f 29/25/17 31/32/17 33/33/17
f 29/25/17 33/33/17 32/33/17 30/34/17
f 31/35/17 34/35/17 35/36/17 33/36/17
f 60/27/25 61/25/25 49/32/25 36/25/25
f 41/33/26 40/33/26 37/33/26 39/33/26
f 38/34/27 50/34/27 41/33/27 39/33/27
f 30/34/27 32/33/27 42/33/27 48/37/27
f 32/33/26 33/33/26 43/33/26 42/33/26
f 33/36/28 35/36/28 44/36/28 43/36/28
f 35/36/26 34/35/26 45/35/26 44/36/26
f 34/35/29 31/35/29 46/35/29 45/35/29
f 31/32/25 29/25/25 47/25/25 46/25/25
f 63/38/1 48/37/1 42/33/1 43/36/1
f 46/25/1 64/39/1 65/40/1 45/35/1
f 49/41/30 50/34/30 52/34/30 51/41/30
f 50/34/27 38/34/27 53/34/27 52/34/27
f 38/34/31 36/25/31 54/25/31 53/34/31
f 36/25/25 49/41/25 51/41/25 54/25/25
f 30/34/27 48/37/27 52/37/27 53/34/27
f 48/37/32 47/25/32 51/25/32 52/37/32
f 47/25/25 29/25/25 54/25/25 51/25/25
f 29/25/33 30/34/33 53/34/33 54/25/33
f 36/25/1 38/34/1 56/34/1 55/25/1
f 38/34/1 39/33/1 57/33/1 56/34/1
f 39/33/1 37/33/1 58/33/1 57/33/1
f 37/33/1 59/26/1 55/25/1 58/33/1
f 49/41/17 62/42/17 50/34/17
f 61/43/17 62/42/17 49/41/17
f 37/33/34 40/33/34 62/42/35 59/26/35
f 59/26/35 62/42/35 61/25/26 60/27/26
f 55/25/1 59/26/1 36/25/1
f 50/34/17 62/42/17 40/33/17 41/33/17
f 63/44/1 66/45/1 65/46/1 64/47/1
f 47/25/1 64/39/1 46/25/1
f 47/25/1 48/37/1 63/38/1 64/39/1
f 44/36/1 66/42/1 63/38/1 43/36/1
f 45/35/1 65/40/1 66/42/1 44/36/1
