# Blender 4.1.1
# www.blender.org
mtllib Folder_Holder_full.02.mtl
o Folder_Holder_full.02
v -0.045911 0.000000 0.164285
v 0.045911 0.000000 0.164285
v -0.045911 0.140893 0.164285
v 0.045911 0.140893 0.164285
v -0.034188 0.059380 -0.164285
v 0.034188 0.059380 -0.164285
v -0.034188 0.038571 -0.164285
v 0.034188 0.038571 -0.164285
v 0.045911 0.355569 -0.032535
v -0.045911 0.355569 -0.032535
v 0.033391 0.355569 -0.032535
v -0.033392 0.355569 -0.032535
v 0.033391 0.355569 -0.150638
v -0.033392 0.355569 -0.150638
v -0.033392 0.153798 0.153540
v 0.033391 0.153798 0.153540
v -0.033392 0.009602 0.153540
v 0.033391 0.009602 0.153540
v 0.033391 0.009602 -0.150638
v -0.033392 0.009602 -0.150638
v -0.031726 0.015057 0.164285
v 0.031725 0.015057 0.164285
v 0.031725 0.125836 0.164285
v -0.031726 0.125836 0.164285
v 0.000003 0.038366 -0.103811
v 0.000003 0.038366 0.143462
v -0.019827 0.375233 -0.114848
v -0.019827 0.375233 0.132424
v -0.011863 0.037535 -0.103811
v -0.011863 0.037535 0.143462
v -0.031693 0.374403 0.132424
v -0.031693 0.374403 -0.114848
v -0.013448 0.266876 0.132424
v -0.007819 0.171252 -0.114848
v -0.025510 0.269362 0.132425
v -0.019880 0.173738 -0.114848
v -0.024527 0.211464 0.135999
v -0.036527 0.212911 0.136000
v -0.020151 0.137135 -0.111273
v -0.032151 0.138581 -0.111273
v -0.006352 0.146332 0.143462
v -0.018307 0.147005 0.143462
v -0.003282 0.094181 -0.103811
v -0.015237 0.094854 -0.103811
v 0.019536 0.033804 -0.144633
v 0.019536 0.033804 0.102641
v 0.019536 0.397425 -0.144633
v 0.019536 0.397425 0.102641
v -0.016802 0.033804 -0.144633
v -0.016802 0.033804 0.102641
v -0.016802 0.397425 0.102641
v -0.016802 0.397425 -0.144633
v 0.004743 0.024896 0.113203
v 0.004082 0.010575 -0.133632
v 0.021227 0.381952 0.107466
v 0.020992 0.376864 -0.135681
v 0.016618 0.024244 0.113203
v 0.015957 0.009923 -0.133632
v 0.032868 0.376212 -0.135681
v 0.033102 0.381300 0.107466
v 0.022756 0.277741 -0.138958
v 0.027306 0.376280 -0.016670
v 0.034605 0.276502 -0.138958
v 0.039181 0.375628 -0.015940
v 0.015485 0.257564 -0.139806
v 0.027367 0.257060 -0.139806
v 0.021227 0.381952 0.018390
v 0.033102 0.381300 0.018203
v 0.020992 0.376864 -0.047370
v 0.032868 0.376212 -0.046413
v 0.017549 0.302277 -0.135681
v 0.029387 0.300817 -0.135681
v 0.010523 0.073370 -0.137485
v 0.016350 0.199583 0.102506
v 0.027670 0.186897 0.103242
v 0.021843 0.060683 -0.136749
v 0.013633 0.217452 0.107466
v 0.025263 0.211486 0.107466
v 0.007808 0.091276 -0.139807
v 0.019438 0.085310 -0.139807
v -0.045911 0.355569 -0.164285
v 0.045911 0.355569 -0.164285
v 0.045911 -0.000000 -0.164285
v -0.045911 -0.000000 -0.164285
vn -0.0000 1.0000 -0.0000
vn -0.0000 0.6603 0.7510
vn -0.0000 -0.0000 -1.0000
vn -0.0000 -1.0000 -0.0000
vn -1.0000 -0.0000 -0.0000
vn -0.0000 -0.0000 1.0000
vn 1.0000 -0.0000 -0.0000
vn 0.0213 0.6638 0.7476
vn 0.0329 0.6765 0.7357
vn 0.0247 0.6675 0.7442
vn -0.0329 0.6765 0.7357
vn -0.0213 0.6638 0.7476
vn -0.0247 0.6675 0.7442
vn -0.9983 -0.0588 -0.0000
vn 0.9983 0.0588 -0.0000
vn 0.0698 -0.9976 -0.0000
vn -0.0698 0.9976 -0.0000
vn -0.0159 -0.0971 -0.9951
vn -0.9661 0.2377 -0.1012
vn 0.9643 -0.2439 0.1033
vn 0.0101 0.0618 0.9980
vn -0.0155 -0.1755 -0.9843
vn -0.9529 -0.2970 0.0616
vn 0.9519 0.3000 -0.0624
vn 0.0103 0.1160 0.9932
vn -1.0000 -0.0003 0.0003
vn -1.0000 0.0003 0.0003
vn -1.0000 0.0003 -0.0003
vn -1.0000 -0.0003 -0.0003
vn 0.9989 -0.0461 -0.0000
vn -0.9971 0.0753 -0.0084
vn -0.0547 -0.9968 0.0580
vn -0.0033 -0.0609 -0.9981
vn 0.0548 0.9985 -0.0000
vn 0.0543 0.9985 0.0074
vn 0.0548 0.9985 0.0004
vn 0.9154 -0.3308 0.2293
vn -0.9551 -0.2100 0.2089
vn 0.0155 0.1362 -0.9906
vn 0.0576 0.9868 -0.1516
vn -0.9201 0.3223 -0.2224
vn 0.0031 0.0417 -0.9991
vn 0.9543 0.2120 -0.2105
vn 0.0543 0.9985 0.0079
vn -0.9989 0.0461 -0.0000
vn -0.9821 -0.1568 0.1047
vn -0.0774 -0.1342 -0.9879
vn 0.0033 0.0609 0.9981
vn 0.9969 -0.0785 0.0094
vn -0.2185 -0.2314 0.9480
vn 0.9923 0.0988 -0.0749
vt 0.132468 0.183916
vt 0.132320 0.183871
vt 0.132527 0.183453
vt 0.132669 0.183493
vt 0.132686 0.183404
vt 0.132539 0.183363
vt 0.132538 0.183391
vt 0.132684 0.183432
vt 0.132705 0.183492
vt 0.132510 0.183436
vt 0.132283 0.183893
vt 0.132487 0.183955
vt 0.132492 0.183833
vt 0.132663 0.183170
vt 0.132742 0.183011
vt 0.324301 0.325973
vt 0.339265 0.325973
vt 0.339265 0.355148
vt 0.324301 0.355148
vt 0.132532 0.182955
vt 0.132449 0.183112
vt 0.132284 0.183771
vt 0.132478 0.183120
vt 0.132321 0.183744
vt 0.132473 0.183790
vt 0.132634 0.183162
vt 0.132549 0.182984
vt 0.132703 0.183025
vt 0.362897 0.325850
vt 0.388783 0.325850
vt 0.388783 0.335414
vt 0.362897 0.330858
vt 0.362897 0.330727
vt 0.388783 0.335283
vt 0.388783 0.357552
vt 0.362897 0.357552
vt 0.362897 0.339732
vt 0.362897 0.340022
vt 0.388783 0.348376
vt 0.388783 0.348086
vt 0.362897 0.335875
vt 0.362897 0.336074
vt 0.388783 0.342568
vt 0.388783 0.342369
vt 0.362897 0.358658
vt 0.388783 0.358658
vt 0.388783 0.390360
vt 0.362897 0.390360
vt 0.415949 0.357552
vt 0.406603 0.357552
vt 0.415949 0.350971
vt 0.390063 0.325850
vt 0.390063 0.341144
vt 0.415949 0.331359
vt 0.415949 0.325850
vt 0.415949 0.330306
vt 0.406704 0.357552
vt 0.390063 0.357552
vt 0.390063 0.343192
vt 0.390063 0.342729
vt 0.415949 0.348899
vt 0.403070 0.357552
vt 0.399407 0.357552
vt 0.415949 0.346707
vt 0.415949 0.348950
vt 0.403147 0.357552
vt 0.415949 0.351041
vt 0.399388 0.357552
vt 0.415949 0.346694
vt 0.415949 0.331714
vt 0.415949 0.332178
vt 0.390063 0.340091
s 1
usemtl Folder_Holder_full.06
f 17/1/1 18/2/1 19/3/2 20/4/2
f 84/9/4 83/10/4 2/11/4 1/12/4
f 84/9/5 1/12/5 3/13/5 10/14/5 81/15/5
f 21/16/6 22/17/6 23/18/6 24/19/6
f 2/11/7 83/10/7 82/20/7 9/21/7 4/22/7
f 4/22/8 9/21/9 11/23/9 16/24/10
f 10/14/11 3/13/12 15/25/13 12/26/11
f 9/21/1 82/20/1 13/27/1 11/23/1
f 82/20/1 81/15/1 14/28/1 13/27/1
f 81/15/1 10/14/1 12/26/1 14/28/1
f 4/22/8 16/24/10 15/25/13 3/13/12
f 15/25/3 16/24/3 18/2/3 17/1/3
f 16/24/5 11/23/5 19/3/5 18/2/5
f 12/26/7 15/25/7 17/1/7 20/4/7
f 11/23/5 13/27/5 19/3/5
f 13/27/6 14/28/6 20/4/2 19/3/2
f 14/28/7 12/26/7 20/4/7
f 1/12/6 2/11/6 22/11/6 21/12/6
f 2/11/6 4/22/6 23/22/6 22/11/6
f 4/22/6 3/13/6 24/13/6 23/22/6
f 3/13/6 1/12/6 21/12/6 24/13/6
f 6/6/3 5/5/3 81/15/3 82/20/3
f 7/8/3 8/7/3 83/10/3 84/9/3
f 5/5/3 7/8/3 84/9/3 81/15/3
f 8/7/3 6/6/3 82/20/3 83/10/3
usemtl Folder_Holder_full.02
f 5/5/3 6/6/3 8/7/3 7/8/3
f 29/29/14 30/30/14 42/31/14 44/32/14
f 25/29/15 43/33/15 41/34/15 26/30/15
f 25/29/16 26/30/16 30/30/16 29/29/16
f 26/30/6 41/34/6 42/31/6 30/30/6
f 28/35/17 27/36/17 32/36/17 31/35/17
f 27/36/3 34/37/3 36/38/3 32/36/3
f 36/38/14 35/39/14 31/35/14 32/36/14
f 33/40/15 34/37/15 27/36/15 28/35/15
f 35/39/6 33/40/6 28/35/6 31/35/6
f 36/38/18 34/37/18 39/41/18 40/42/18
f 40/42/19 38/43/19 35/39/19 36/38/19
f 37/44/20 39/41/20 34/37/20 33/40/20
f 38/43/21 37/44/21 33/40/21 35/39/21
f 40/42/22 39/41/22 43/33/22 44/32/22
f 44/32/23 42/31/23 38/43/23 40/42/23
f 41/34/24 43/33/24 39/41/24 37/44/24
f 42/31/25 41/34/25 37/44/25 38/43/25
f 44/32/3 43/33/3 25/29/3 29/29/3
f 59/49/30 70/50/30 72/51/30
f 53/52/31 74/53/31 73/54/31 54/55/31
f 53/52/32 54/55/32 58/55/32 57/52/32
f 54/55/33 73/54/33 76/56/33 58/55/33
f 56/49/34 69/57/35 70/50/36 59/49/34
f 55/58/6 77/59/6 78/60/6 60/58/6
f 63/61/37 64/62/37 68/63/37 66/64/37
f 61/65/38 62/66/38 69/57/38 71/67/38
f 63/61/39 61/65/39 71/67/39 72/51/39
f 64/62/40 62/66/40 67/68/40 68/63/40
f 65/69/41 67/68/41 62/66/41 61/65/41
f 66/64/42 65/69/42 61/65/42 63/61/42
f 66/64/30 68/63/30 60/58/30 78/60/30 80/70/30
f 68/63/34 67/68/34 55/58/34 60/58/34
f 72/51/43 70/50/43 64/62/43 63/61/43
f 70/50/36 69/57/35 62/66/44 64/62/44
f 71/67/45 69/57/45 56/49/45
f 72/51/3 71/67/3 56/49/3 59/49/3
f 73/54/46 74/53/46 77/59/46 79/71/46
f 76/56/47 73/54/47 79/71/47 80/70/47
f 75/72/48 74/53/48 53/52/48 57/52/48
f 76/56/49 75/72/49 57/52/49 58/55/49
f 78/60/50 77/59/50 74/53/50 75/72/50
f 80/70/51 78/60/51 75/72/51 76/56/51
f 79/71/45 77/59/45 55/58/45 67/68/45 65/69/45
f 80/70/3 79/71/3 65/69/3 66/64/3
usemtl Folder_Holder_full.04
f 49/45/26 50/46/27 51/47/28 52/48/29
f 45/45/7 47/48/7 48/47/7 46/46/7
f 45/45/4 46/46/4 50/46/27 49/45/26
f 46/46/6 48/47/6 51/47/28 50/46/27
f 48/47/1 47/48/1 52/48/29 51/47/28
f 47/48/3 45/45/3 49/45/26 52/48/29
