# Blender 4.1.1
# www.blender.org
mtllib pile_post-it.mtl
o pile_post-it
v -0.109605 -0.014286 0.109505
v -0.104752 0.094546 0.106738
v -0.109605 -0.014286 -0.110495
v -0.114596 0.096904 -0.109210
v 0.110395 -0.014286 0.109505
v 0.108284 0.095556 0.113217
v 0.110395 -0.014286 -0.110495
v 0.114651 0.089076 -0.110827
v -0.111627 0.021398 0.109096
v -0.106548 0.059308 0.109727
v -0.106396 0.056657 -0.111697
v -0.112521 0.017371 -0.107325
v 0.112784 0.056781 -0.111332
v 0.108118 0.021721 -0.109345
v 0.106780 0.056625 0.107069
v 0.110363 0.021363 0.109627
v -0.147333 0.095329 0.046481
v -0.145356 0.120835 0.048712
v -0.043540 0.095043 -0.146211
v -0.046603 0.122052 -0.147896
v 0.048079 0.095320 0.146339
v 0.047125 0.120388 0.147896
v 0.146851 0.092082 -0.048614
v 0.147290 0.123782 -0.045926
vn -0.9962 -0.0844 0.0221
vn -0.0021 0.0410 -0.9992
vn 0.9983 -0.0499 0.0286
vn -0.0091 -0.0422 0.9991
vn -0.0000 -1.0000 -0.0000
vn 0.0155 0.9998 -0.0095
vn -0.0012 0.0040 1.0000
vn 0.0050 0.0262 0.9996
vn 0.9995 0.0323 -0.0051
vn 0.9999 -0.0148 0.0086
vn -0.0052 0.0633 -0.9980
vn -0.0029 -0.0848 -0.9964
vn -0.9973 -0.0732 0.0027
vn -0.9896 0.1436 -0.0005
vn -0.8870 -0.0136 -0.4615
vn 0.4607 0.0358 -0.8868
vn 0.8899 -0.0260 0.4554
vn -0.4558 -0.0573 0.8882
vn -0.0097 -0.9999 0.0040
vn -0.0075 0.9999 0.0080
vt 0.283227 0.380229
vt 0.287901 0.415299
vt 0.085216 0.565399
vt 0.046038 0.510126
vt 0.068183 0.644036
vt 0.489390 0.759850
vt 0.460643 0.816200
vt 0.538573 0.749777
vt 0.435484 0.471198
vt 0.476903 0.441469
vt 0.364796 0.001269
vt 0.648229 0.093846
vt 0.555651 0.377279
vt 0.272219 0.284702
vt 0.513363 0.411822
vt 0.275547 0.335570
vt 0.648229 0.720544
vt 0.591451 0.733932
vt 0.006434 0.769260
vt 0.026128 0.709978
vt 0.424677 0.875395
vt 0.400517 0.941712
vt 0.025052 0.459437
vt 0.001269 0.422266
vt 0.994770 0.334709
vt 0.950695 0.300323
vt 0.962444 0.048845
vt 0.998731 0.001269
vt 0.715485 0.055054
vt 0.678805 0.014818
vt 0.699850 0.300643
vt 0.650767 0.346135
vt 0.998731 0.677971
vt 0.663304 0.688724
s 1
usemtl paper.01
f 10/1/1 2/2/1 4/3/1 11/4/1
f 11/5/2 4/3/2 8/6/2 13/7/2
f 13/8/3 8/6/3 6/9/3 15/10/3
f 15/10/4 6/9/4 2/2/4 10/1/4
f 3/11/5 7/12/5 5/13/5 1/14/5
f 8/6/6 4/3/6 2/2/6 6/9/6
f 17/25/15 18/26/15 20/27/15 19/28/15
f 19/28/16 20/27/16 24/29/16 23/30/16
f 23/30/17 24/29/17 22/31/17 21/32/17
f 21/32/18 22/31/18 18/26/18 17/25/18
f 19/33/19 23/34/19 21/32/19 17/25/19
f 24/29/20 20/27/20 18/26/20 22/31/20
usemtl paper.02
f 5/13/7 16/15/7 9/16/7 1/14/7
f 16/15/8 15/10/8 10/1/8 9/16/8
f 7/17/9 14/18/9 16/15/9 5/13/9
f 14/18/10 13/8/10 15/10/10 16/15/10
f 3/19/11 12/20/11 14/21/11 7/22/11
f 12/20/12 11/5/12 13/7/12 14/21/12
f 1/14/13 9/16/13 12/23/13 3/24/13
f 9/16/14 10/1/14 11/4/14 12/23/14
